mtllib APPLE_HONEYGOLD_HANDOFF_1_3.mtl
o ART003_PROP
v 0.291200 -0.520000 0.000000
v 0.258686 -0.520000 0.107151
v 0.190070 -0.520000 0.190070
v 0.107151 -0.520000 0.258686
v 0.000000 -0.520000 0.291200
v -0.107151 -0.520000 0.258686
v -0.190070 -0.520000 0.190070
v -0.258686 -0.520000 0.107151
v -0.291200 -0.520000 0.000000
v -0.258686 -0.520000 -0.107151
v -0.190070 -0.520000 -0.190070
v -0.107151 -0.520000 -0.258686
v -0.000000 -0.520000 -0.291200
v 0.107151 -0.520000 -0.258686
v 0.190070 -0.520000 -0.190070
v 0.258686 -0.520000 -0.107151
v 0.540800 -0.420000 0.000000
v 0.480417 -0.420000 0.198995
v 0.352988 -0.420000 0.352988
v 0.198995 -0.420000 0.480417
v 0.000000 -0.420000 0.540800
v -0.198995 -0.420000 0.480417
v -0.352988 -0.420000 0.352988
v -0.480417 -0.420000 0.198995
v -0.540800 -0.420000 0.000000
v -0.480417 -0.420000 -0.198995
v -0.352988 -0.420000 -0.352988
v -0.198995 -0.420000 -0.480417
v -0.000000 -0.420000 -0.540800
v 0.198995 -0.420000 -0.480417
v 0.352988 -0.420000 -0.352988
v 0.480417 -0.420000 -0.198995
v 0.644800 -0.120000 0.000000
v 0.572805 -0.120000 0.237264
v 0.420870 -0.120000 0.420870
v 0.237264 -0.120000 0.572805
v 0.000000 -0.120000 0.644800
v -0.237264 -0.120000 0.572805
v -0.420870 -0.120000 0.420870
v -0.572805 -0.120000 0.237264
v -0.644800 -0.120000 0.000000
v -0.572805 -0.120000 -0.237264
v -0.420870 -0.120000 -0.420870
v -0.237264 -0.120000 -0.572805
v -0.000000 -0.120000 -0.644800
v 0.237264 -0.120000 -0.572805
v 0.420870 -0.120000 -0.420870
v 0.572805 -0.120000 -0.237264
v 0.650000 0.220000 0.000000
v 0.577425 0.220000 0.239177
v 0.424264 0.220000 0.424264
v 0.239177 0.220000 0.577425
v 0.000000 0.220000 0.650000
v -0.239177 0.220000 0.577425
v -0.424264 0.220000 0.424264
v -0.577425 0.220000 0.239177
v -0.650000 0.220000 0.000000
v -0.577425 0.220000 -0.239177
v -0.424264 0.220000 -0.424264
v -0.239177 0.220000 -0.577425
v -0.000000 0.220000 -0.650000
v 0.239177 0.220000 -0.577425
v 0.424264 0.220000 -0.424264
v 0.577425 0.220000 -0.239177
v 0.520000 0.420000 0.000000
v 0.461940 0.420000 0.191342
v 0.339411 0.420000 0.339411
v 0.191342 0.420000 0.461940
v 0.000000 0.420000 0.520000
v -0.191342 0.420000 0.461940
v -0.339411 0.420000 0.339411
v -0.461940 0.420000 0.191342
v -0.520000 0.420000 0.000000
v -0.461940 0.420000 -0.191342
v -0.339411 0.420000 -0.339411
v -0.191342 0.420000 -0.461940
v -0.000000 0.420000 -0.520000
v 0.191342 0.420000 -0.461940
v 0.339411 0.420000 -0.339411
v 0.461940 0.420000 -0.191342
v 0.228800 0.480000 0.000000
v 0.203253 0.480000 0.084190
v 0.149341 0.480000 0.149341
v 0.084190 0.480000 0.203253
v 0.000000 0.480000 0.228800
v -0.084190 0.480000 0.203253
v -0.149341 0.480000 0.149341
v -0.203253 0.480000 0.084190
v -0.228800 0.480000 0.000000
v -0.203253 0.480000 -0.084190
v -0.149341 0.480000 -0.149341
v -0.084190 0.480000 -0.203253
v -0.000000 0.480000 -0.228800
v 0.084190 0.480000 -0.203253
v 0.149341 0.480000 -0.149341
v 0.203253 0.480000 -0.084190
v 0.000000 -0.520000 0.000000
v 0.000000 0.460000 0.000000
v 0.060000 0.480000 0.000000
v 0.048541 0.480000 0.035267
v 0.018541 0.480000 0.057063
v -0.018541 0.480000 0.057063
v -0.048541 0.480000 0.035267
v -0.060000 0.480000 0.000000
v -0.048541 0.480000 -0.035267
v -0.018541 0.480000 -0.057063
v 0.018541 0.480000 -0.057063
v 0.048541 0.480000 -0.035267
v 0.060000 0.800000 0.000000
v 0.048541 0.800000 0.035267
v 0.018541 0.800000 0.057063
v -0.018541 0.800000 0.057063
v -0.048541 0.800000 0.035267
v -0.060000 0.800000 0.000000
v -0.048541 0.800000 -0.035267
v -0.018541 0.800000 -0.057063
v 0.018541 0.800000 -0.057063
v 0.048541 0.800000 -0.035267
v 0.000000 0.480000 0.000000
v 0.000000 0.800000 0.000000
v 0.080000 0.640000 -0.070000
v 0.450000 0.690000 0.000000
v 0.280000 0.720000 0.130000
v 0.080000 0.670000 0.070000
usemtl AppleSkin_Honeygold
f 97 2 1
f 81 82 98
f 97 3 2
f 82 83 98
f 97 4 3
f 83 84 98
f 97 5 4
f 84 85 98
f 97 6 5
f 85 86 98
f 97 7 6
f 86 87 98
f 97 8 7
f 87 88 98
f 97 9 8
f 88 89 98
f 97 10 9
f 89 90 98
f 97 11 10
f 90 91 98
f 97 12 11
f 91 92 98
f 97 13 12
f 92 93 98
f 97 14 13
f 93 94 98
f 97 15 14
f 94 95 98
f 97 16 15
f 95 96 98
f 97 1 16
f 96 81 98
f 1 2 18 17
f 2 3 19 18
f 3 4 20 19
f 4 5 21 20
f 5 6 22 21
f 6 7 23 22
f 7 8 24 23
f 8 9 25 24
f 9 10 26 25
f 10 11 27 26
f 11 12 28 27
f 12 13 29 28
f 13 14 30 29
f 14 15 31 30
f 15 16 32 31
f 16 1 17 32
f 17 18 34 33
f 18 19 35 34
f 19 20 36 35
f 20 21 37 36
f 21 22 38 37
f 22 23 39 38
f 23 24 40 39
f 24 25 41 40
f 25 26 42 41
f 26 27 43 42
f 27 28 44 43
f 28 29 45 44
f 29 30 46 45
f 30 31 47 46
f 31 32 48 47
f 32 17 33 48
f 33 34 50 49
f 34 35 51 50
f 35 36 52 51
f 36 37 53 52
f 37 38 54 53
f 38 39 55 54
f 39 40 56 55
f 40 41 57 56
f 41 42 58 57
f 42 43 59 58
f 43 44 60 59
f 44 45 61 60
f 45 46 62 61
f 46 47 63 62
f 47 48 64 63
f 48 33 49 64
f 49 50 66 65
f 50 51 67 66
f 51 52 68 67
f 52 53 69 68
f 53 54 70 69
f 54 55 71 70
f 55 56 72 71
f 56 57 73 72
f 57 58 74 73
f 58 59 75 74
f 59 60 76 75
f 60 61 77 76
f 61 62 78 77
f 62 63 79 78
f 63 64 80 79
f 64 49 65 80
f 65 66 82 81
f 66 67 83 82
f 67 68 84 83
f 68 69 85 84
f 69 70 86 85
f 70 71 87 86
f 71 72 88 87
f 72 73 89 88
f 73 74 90 89
f 74 75 91 90
f 75 76 92 91
f 76 77 93 92
f 77 78 94 93
f 78 79 95 94
f 79 80 96 95
f 80 65 81 96
usemtl Stem_Wood
f 119 100 99
f 120 109 110
f 99 100 110 109
f 119 101 100
f 120 110 111
f 100 101 111 110
f 119 102 101
f 120 111 112
f 101 102 112 111
f 119 103 102
f 120 112 113
f 102 103 113 112
f 119 104 103
f 120 113 114
f 103 104 114 113
f 119 105 104
f 120 114 115
f 104 105 115 114
f 119 106 105
f 120 115 116
f 105 106 116 115
f 119 107 106
f 120 116 117
f 106 107 117 116
f 119 108 107
f 120 117 118
f 107 108 118 117
f 119 99 108
f 120 118 109
f 108 99 109 118
usemtl Leaf_Muted
f 121 122 123
f 121 123 124
