# Pipi Labu market kit candidate 1.0.0
mtllib FACADE_PANEL_6.mtl
o FACADE_PANEL_6
v -3.000000 0.000000 -0.150000
v 3.000000 0.000000 -0.150000
v 3.000000 5.400000 -0.150000
v -3.000000 5.400000 -0.150000
v -3.000000 0.000000 0.150000
v 3.000000 0.000000 0.150000
v 3.000000 5.400000 0.150000
v -3.000000 5.400000 0.150000
v -3.000000 0.000000 -0.150000
v 3.000000 0.000000 -0.150000
v 3.000000 0.360000 -0.150000
v -3.000000 0.360000 -0.150000
v -3.000000 0.000000 0.150000
v 3.000000 0.000000 0.150000
v 3.000000 0.360000 0.150000
v -3.000000 0.360000 0.150000
v -3.000000 4.900000 -0.150000
v 3.000000 4.900000 -0.150000
v 3.000000 5.400000 -0.150000
v -3.000000 5.400000 -0.150000
v -3.000000 4.900000 0.150000
v 3.000000 4.900000 0.150000
v 3.000000 5.400000 0.150000
v -3.000000 5.400000 0.150000
usemtl PlasterCream
f 1 2 3 4
f 5 8 7 6
f 1 5 6 2
f 2 6 7 3
f 3 7 8 4
f 5 1 4 8
usemtl WoodDark
f 9 10 11 12
f 13 16 15 14
f 9 13 14 10
f 10 14 15 11
f 11 15 16 12
f 13 9 12 16
usemtl WoodWarm
f 17 18 19 20
f 21 24 23 22
f 17 21 22 18
f 18 22 23 19
f 19 23 24 20
f 21 17 20 24
