# Pipi Labu market kit candidate 1.0.0
mtllib FRUIT_TRAY_3.mtl
o FRUIT_TRAY_3
v -1.600000 0.000000 -0.600000
v 1.600000 0.000000 -0.600000
v 1.600000 0.440000 -0.600000
v -1.600000 0.440000 -0.600000
v -1.600000 0.000000 0.600000
v 1.600000 0.000000 0.600000
v 1.600000 0.440000 0.600000
v -1.600000 0.440000 0.600000
v -1.600000 0.630000 -0.600000
v 1.600000 0.630000 -0.600000
v 1.600000 0.770000 -0.600000
v -1.600000 0.770000 -0.600000
v -1.600000 0.630000 -0.460000
v 1.600000 0.630000 -0.460000
v 1.600000 0.770000 -0.460000
v -1.600000 0.770000 -0.460000
v -1.600000 0.630000 0.460000
v 1.600000 0.630000 0.460000
v 1.600000 0.770000 0.460000
v -1.600000 0.770000 0.460000
v -1.600000 0.630000 0.600000
v 1.600000 0.630000 0.600000
v 1.600000 0.770000 0.600000
v -1.600000 0.770000 0.600000
v -1.600000 0.460000 -0.500000
v -1.460000 0.460000 -0.500000
v -1.460000 0.940000 -0.500000
v -1.600000 0.940000 -0.500000
v -1.600000 0.460000 0.500000
v -1.460000 0.460000 0.500000
v -1.460000 0.940000 0.500000
v -1.600000 0.940000 0.500000
v 1.460000 0.460000 -0.500000
v 1.600000 0.460000 -0.500000
v 1.600000 0.940000 -0.500000
v 1.460000 0.940000 -0.500000
v 1.460000 0.460000 0.500000
v 1.600000 0.460000 0.500000
v 1.600000 0.940000 0.500000
v 1.460000 0.940000 0.500000
v -0.920000 0.590000 0.000000
v -0.950814 0.590000 0.115000
v -1.035000 0.590000 0.199186
v -1.150000 0.590000 0.230000
v -1.265000 0.590000 0.199186
v -1.349186 0.590000 0.115000
v -1.380000 0.590000 0.000000
v -1.349186 0.590000 -0.115000
v -1.265000 0.590000 -0.199186
v -1.150000 0.590000 -0.230000
v -1.035000 0.590000 -0.199186
v -0.950814 0.590000 -0.115000
v -0.920000 1.050000 0.000000
v -0.950814 1.050000 0.115000
v -1.035000 1.050000 0.199186
v -1.150000 1.050000 0.230000
v -1.265000 1.050000 0.199186
v -1.349186 1.050000 0.115000
v -1.380000 1.050000 0.000000
v -1.349186 1.050000 -0.115000
v -1.265000 1.050000 -0.199186
v -1.150000 1.050000 -0.230000
v -1.035000 1.050000 -0.199186
v -0.950814 1.050000 -0.115000
v -0.150000 0.590000 0.000000
v -0.180814 0.590000 0.115000
v -0.265000 0.590000 0.199186
v -0.380000 0.590000 0.230000
v -0.495000 0.590000 0.199186
v -0.579186 0.590000 0.115000
v -0.610000 0.590000 0.000000
v -0.579186 0.590000 -0.115000
v -0.495000 0.590000 -0.199186
v -0.380000 0.590000 -0.230000
v -0.265000 0.590000 -0.199186
v -0.180814 0.590000 -0.115000
v -0.150000 1.050000 0.000000
v -0.180814 1.050000 0.115000
v -0.265000 1.050000 0.199186
v -0.380000 1.050000 0.230000
v -0.495000 1.050000 0.199186
v -0.579186 1.050000 0.115000
v -0.610000 1.050000 0.000000
v -0.579186 1.050000 -0.115000
v -0.495000 1.050000 -0.199186
v -0.380000 1.050000 -0.230000
v -0.265000 1.050000 -0.199186
v -0.180814 1.050000 -0.115000
v 0.610000 0.590000 0.000000
v 0.579186 0.590000 0.115000
v 0.495000 0.590000 0.199186
v 0.380000 0.590000 0.230000
v 0.265000 0.590000 0.199186
v 0.180814 0.590000 0.115000
v 0.150000 0.590000 0.000000
v 0.180814 0.590000 -0.115000
v 0.265000 0.590000 -0.199186
v 0.380000 0.590000 -0.230000
v 0.495000 0.590000 -0.199186
v 0.579186 0.590000 -0.115000
v 0.610000 1.050000 0.000000
v 0.579186 1.050000 0.115000
v 0.495000 1.050000 0.199186
v 0.380000 1.050000 0.230000
v 0.265000 1.050000 0.199186
v 0.180814 1.050000 0.115000
v 0.150000 1.050000 0.000000
v 0.180814 1.050000 -0.115000
v 0.265000 1.050000 -0.199186
v 0.380000 1.050000 -0.230000
v 0.495000 1.050000 -0.199186
v 0.579186 1.050000 -0.115000
v 1.380000 0.590000 0.000000
v 1.349186 0.590000 0.115000
v 1.265000 0.590000 0.199186
v 1.150000 0.590000 0.230000
v 1.035000 0.590000 0.199186
v 0.950814 0.590000 0.115000
v 0.920000 0.590000 0.000000
v 0.950814 0.590000 -0.115000
v 1.035000 0.590000 -0.199186
v 1.150000 0.590000 -0.230000
v 1.265000 0.590000 -0.199186
v 1.349186 0.590000 -0.115000
v 1.380000 1.050000 0.000000
v 1.349186 1.050000 0.115000
v 1.265000 1.050000 0.199186
v 1.150000 1.050000 0.230000
v 1.035000 1.050000 0.199186
v 0.950814 1.050000 0.115000
v 0.920000 1.050000 0.000000
v 0.950814 1.050000 -0.115000
v 1.035000 1.050000 -0.199186
v 1.150000 1.050000 -0.230000
v 1.265000 1.050000 -0.199186
v 1.349186 1.050000 -0.115000
usemtl WoodWarm
f 1 2 3 4
f 5 8 7 6
f 1 5 6 2
f 2 6 7 3
f 3 7 8 4
f 5 1 4 8
usemtl WoodDark
f 9 10 11 12
f 13 16 15 14
f 9 13 14 10
f 10 14 15 11
f 11 15 16 12
f 13 9 12 16
f 17 18 19 20
f 21 24 23 22
f 17 21 22 18
f 18 22 23 19
f 19 23 24 20
f 21 17 20 24
f 25 26 27 28
f 29 32 31 30
f 25 29 30 26
f 26 30 31 27
f 27 31 32 28
f 29 25 28 32
f 33 34 35 36
f 37 40 39 38
f 33 37 38 34
f 34 38 39 35
f 35 39 40 36
f 37 33 36 40
usemtl FruitHoneygold
f 52 51 50 49 48 47 46 45 44 43 42 41
f 53 54 55 56 57 58 59 60 61 62 63 64
f 41 42 54 53
f 42 43 55 54
f 43 44 56 55
f 44 45 57 56
f 45 46 58 57
f 46 47 59 58
f 47 48 60 59
f 48 49 61 60
f 49 50 62 61
f 50 51 63 62
f 51 52 64 63
f 52 41 53 64
usemtl FruitRuby
f 76 75 74 73 72 71 70 69 68 67 66 65
f 77 78 79 80 81 82 83 84 85 86 87 88
f 65 66 78 77
f 66 67 79 78
f 67 68 80 79
f 68 69 81 80
f 69 70 82 81
f 70 71 83 82
f 71 72 84 83
f 72 73 85 84
f 73 74 86 85
f 74 75 87 86
f 75 76 88 87
f 76 65 77 88
usemtl FruitHoneygold
f 100 99 98 97 96 95 94 93 92 91 90 89
f 101 102 103 104 105 106 107 108 109 110 111 112
f 89 90 102 101
f 90 91 103 102
f 91 92 104 103
f 92 93 105 104
f 93 94 106 105
f 94 95 107 106
f 95 96 108 107
f 96 97 109 108
f 97 98 110 109
f 98 99 111 110
f 99 100 112 111
f 100 89 101 112
usemtl FruitRuby
f 124 123 122 121 120 119 118 117 116 115 114 113
f 125 126 127 128 129 130 131 132 133 134 135 136
f 113 114 126 125
f 114 115 127 126
f 115 116 128 127
f 116 117 129 128
f 117 118 130 129
f 118 119 131 130
f 119 120 132 131
f 120 121 133 132
f 121 122 134 133
f 122 123 135 134
f 123 124 136 135
f 124 113 125 136
