# Pipi Labu market kit candidate 1.0.0
mtllib LANTERN_POST_4.mtl
o LANTERN_POST_4
v -0.120000 0.000000 -0.120000
v 0.120000 0.000000 -0.120000
v 0.120000 4.000000 -0.120000
v -0.120000 4.000000 -0.120000
v -0.120000 0.000000 0.120000
v 0.120000 0.000000 0.120000
v 0.120000 4.000000 0.120000
v -0.120000 4.000000 0.120000
v 0.350000 3.775000 0.000000
v 0.303109 3.775000 0.175000
v 0.175000 3.775000 0.303109
v 0.000000 3.775000 0.350000
v -0.175000 3.775000 0.303109
v -0.303109 3.775000 0.175000
v -0.350000 3.775000 0.000000
v -0.303109 3.775000 -0.175000
v -0.175000 3.775000 -0.303109
v -0.000000 3.775000 -0.350000
v 0.175000 3.775000 -0.303109
v 0.303109 3.775000 -0.175000
v 0.350000 4.525000 0.000000
v 0.303109 4.525000 0.175000
v 0.175000 4.525000 0.303109
v 0.000000 4.525000 0.350000
v -0.175000 4.525000 0.303109
v -0.303109 4.525000 0.175000
v -0.350000 4.525000 0.000000
v -0.303109 4.525000 -0.175000
v -0.175000 4.525000 -0.303109
v -0.000000 4.525000 -0.350000
v 0.175000 4.525000 -0.303109
v 0.303109 4.525000 -0.175000
v 0.450000 4.550000 0.000000
v 0.389711 4.550000 0.225000
v 0.225000 4.550000 0.389711
v 0.000000 4.550000 0.450000
v -0.225000 4.550000 0.389711
v -0.389711 4.550000 0.225000
v -0.450000 4.550000 0.000000
v -0.389711 4.550000 -0.225000
v -0.225000 4.550000 -0.389711
v -0.000000 4.550000 -0.450000
v 0.225000 4.550000 -0.389711
v 0.389711 4.550000 -0.225000
v 0.450000 4.700000 0.000000
v 0.389711 4.700000 0.225000
v 0.225000 4.700000 0.389711
v 0.000000 4.700000 0.450000
v -0.225000 4.700000 0.389711
v -0.389711 4.700000 0.225000
v -0.450000 4.700000 0.000000
v -0.389711 4.700000 -0.225000
v -0.225000 4.700000 -0.389711
v -0.000000 4.700000 -0.450000
v 0.225000 4.700000 -0.389711
v 0.389711 4.700000 -0.225000
usemtl WoodDark
f 1 2 3 4
f 5 8 7 6
f 1 5 6 2
f 2 6 7 3
f 3 7 8 4
f 5 1 4 8
usemtl LanternAmber
f 20 19 18 17 16 15 14 13 12 11 10 9
f 21 22 23 24 25 26 27 28 29 30 31 32
f 9 10 22 21
f 10 11 23 22
f 11 12 24 23
f 12 13 25 24
f 13 14 26 25
f 14 15 27 26
f 15 16 28 27
f 16 17 29 28
f 17 18 30 29
f 18 19 31 30
f 19 20 32 31
f 20 9 21 32
usemtl WoodDark
f 44 43 42 41 40 39 38 37 36 35 34 33
f 45 46 47 48 49 50 51 52 53 54 55 56
f 33 34 46 45
f 34 35 47 46
f 35 36 48 47
f 36 37 49 48
f 37 38 50 49
f 38 39 51 50
f 39 40 52 51
f 40 41 53 52
f 41 42 54 53
f 42 43 55 54
f 43 44 56 55
f 44 33 45 56
