# Pipi Labu market kit candidate 1.0.0
mtllib PLANTER_2.mtl
o PLANTER_2
v -1.000000 0.000000 -0.450000
v 1.000000 0.000000 -0.450000
v 1.000000 0.760000 -0.450000
v -1.000000 0.760000 -0.450000
v -1.000000 0.000000 0.450000
v 1.000000 0.000000 0.450000
v 1.000000 0.760000 0.450000
v -1.000000 0.760000 0.450000
v -1.000000 0.730000 -0.450000
v 1.000000 0.730000 -0.450000
v 1.000000 0.870000 -0.450000
v -1.000000 0.870000 -0.450000
v -1.000000 0.730000 0.450000
v 1.000000 0.730000 0.450000
v 1.000000 0.870000 0.450000
v -1.000000 0.870000 0.450000
v 0.380000 0.850000 0.000000
v 0.329090 0.850000 0.190000
v 0.190000 0.850000 0.329090
v 0.000000 0.850000 0.380000
v -0.190000 0.850000 0.329090
v -0.329090 0.850000 0.190000
v -0.380000 0.850000 0.000000
v -0.329090 0.850000 -0.190000
v -0.190000 0.850000 -0.329090
v -0.000000 0.850000 -0.380000
v 0.190000 0.850000 -0.329090
v 0.329090 0.850000 -0.190000
v 0.380000 0.950000 0.000000
v 0.329090 0.950000 0.190000
v 0.190000 0.950000 0.329090
v 0.000000 0.950000 0.380000
v -0.190000 0.950000 0.329090
v -0.329090 0.950000 0.190000
v -0.380000 0.950000 0.000000
v -0.329090 0.950000 -0.190000
v -0.190000 0.950000 -0.329090
v -0.000000 0.950000 -0.380000
v 0.190000 0.950000 -0.329090
v 0.329090 0.950000 -0.190000
usemtl StoneWarm
f 1 2 3 4
f 5 8 7 6
f 1 5 6 2
f 2 6 7 3
f 3 7 8 4
f 5 1 4 8
usemtl WoodDark
f 9 10 11 12
f 13 16 15 14
f 9 13 14 10
f 10 14 15 11
f 11 15 16 12
f 13 9 12 16
usemtl Leaf
f 28 27 26 25 24 23 22 21 20 19 18 17
f 29 30 31 32 33 34 35 36 37 38 39 40
f 17 18 30 29
f 18 19 31 30
f 19 20 32 31
f 20 21 33 32
f 21 22 34 33
f 22 23 35 34
f 23 24 36 35
f 24 25 37 36
f 25 26 38 37
f 26 27 39 38
f 27 28 40 39
f 28 17 29 40
