# Pipi Labu market kit candidate 1.0.0
mtllib STREET_EDGE_CURB_4.mtl
o STREET_EDGE_CURB_4
v -2.000000 0.000000 -0.325000
v 2.000000 0.000000 -0.325000
v 2.000000 0.450000 -0.325000
v -2.000000 0.450000 -0.325000
v -2.000000 0.000000 0.325000
v 2.000000 0.000000 0.325000
v 2.000000 0.450000 0.325000
v -2.000000 0.450000 0.325000
v -1.920000 0.430000 -0.280000
v 1.920000 0.430000 -0.280000
v 1.920000 0.450000 -0.280000
v -1.920000 0.450000 -0.280000
v -1.920000 0.430000 0.280000
v 1.920000 0.430000 0.280000
v 1.920000 0.450000 0.280000
v -1.920000 0.450000 0.280000
usemtl StoneWarm
f 1 2 3 4
f 5 8 7 6
f 1 5 6 2
f 2 6 7 3
f 3 7 8 4
f 5 1 4 8
usemtl PlasterCream
f 9 10 11 12
f 13 16 15 14
f 9 13 14 10
f 10 14 15 11
f 11 15 16 12
f 13 9 12 16
