mtllib apple_serving_prop_assembly.mtl
o ART003_PROP
v -7.250000 0.000000 -2.500000
v -1.250000 0.000000 -2.500000
v -1.250000 0.240000 -2.500000
v -7.250000 0.240000 -2.500000
v -7.250000 0.000000 2.500000
v -1.250000 0.000000 2.500000
v -1.250000 0.240000 2.500000
v -7.250000 0.240000 2.500000
v -7.250000 0.220000 -2.500000
v -1.250000 0.220000 -2.500000
v -1.250000 0.880000 -2.500000
v -7.250000 0.880000 -2.500000
v -7.250000 0.220000 -2.260000
v -1.250000 0.220000 -2.260000
v -1.250000 0.880000 -2.260000
v -7.250000 0.880000 -2.260000
v -7.250000 0.220000 2.260000
v -1.250000 0.220000 2.260000
v -1.250000 0.880000 2.260000
v -7.250000 0.880000 2.260000
v -7.250000 0.220000 2.500000
v -1.250000 0.220000 2.500000
v -1.250000 0.880000 2.500000
v -7.250000 0.880000 2.500000
v -7.250000 0.220000 -2.260000
v -7.010000 0.220000 -2.260000
v -7.010000 0.880000 -2.260000
v -7.250000 0.880000 -2.260000
v -7.250000 0.220000 2.260000
v -7.010000 0.220000 2.260000
v -7.010000 0.880000 2.260000
v -7.250000 0.880000 2.260000
v -1.490000 0.220000 -2.260000
v -1.250000 0.220000 -2.260000
v -1.250000 0.880000 -2.260000
v -1.490000 0.880000 -2.260000
v -1.490000 0.220000 2.260000
v -1.250000 0.220000 2.260000
v -1.250000 0.880000 2.260000
v -1.490000 0.880000 2.260000
v -7.250000 0.000000 -2.500000
v -6.930000 0.000000 -2.500000
v -6.930000 2.500000 -2.500000
v -7.250000 2.500000 -2.500000
v -7.250000 0.000000 -2.180000
v -6.930000 0.000000 -2.180000
v -6.930000 2.500000 -2.180000
v -7.250000 2.500000 -2.180000
v -7.250000 0.000000 2.180000
v -6.930000 0.000000 2.180000
v -6.930000 2.500000 2.180000
v -7.250000 2.500000 2.180000
v -7.250000 0.000000 2.500000
v -6.930000 0.000000 2.500000
v -6.930000 2.500000 2.500000
v -7.250000 2.500000 2.500000
v -1.570000 0.000000 -2.500000
v -1.250000 0.000000 -2.500000
v -1.250000 2.500000 -2.500000
v -1.570000 2.500000 -2.500000
v -1.570000 0.000000 -2.180000
v -1.250000 0.000000 -2.180000
v -1.250000 2.500000 -2.180000
v -1.570000 2.500000 -2.180000
v -1.570000 0.000000 2.180000
v -1.250000 0.000000 2.180000
v -1.250000 2.500000 2.180000
v -1.570000 2.500000 2.180000
v -1.570000 0.000000 2.500000
v -1.250000 0.000000 2.500000
v -1.250000 2.500000 2.500000
v -1.570000 2.500000 2.500000
v -7.025000 0.930000 2.440000
v -1.475000 0.930000 2.440000
v -1.475000 1.070000 2.440000
v -7.025000 1.070000 2.440000
v -7.025000 0.930000 2.500000
v -1.475000 0.930000 2.500000
v -1.475000 1.070000 2.500000
v -7.025000 1.070000 2.500000
v -7.025000 0.930000 -2.500000
v -1.475000 0.930000 -2.500000
v -1.475000 1.070000 -2.500000
v -7.025000 1.070000 -2.500000
v -7.025000 0.930000 -2.440000
v -1.475000 0.930000 -2.440000
v -1.475000 1.070000 -2.440000
v -7.025000 1.070000 -2.440000
v -7.025000 1.410000 2.440000
v -1.475000 1.410000 2.440000
v -1.475000 1.550000 2.440000
v -7.025000 1.550000 2.440000
v -7.025000 1.410000 2.500000
v -1.475000 1.410000 2.500000
v -1.475000 1.550000 2.500000
v -7.025000 1.550000 2.500000
v -7.025000 1.410000 -2.500000
v -1.475000 1.410000 -2.500000
v -1.475000 1.550000 -2.500000
v -7.025000 1.550000 -2.500000
v -7.025000 1.410000 -2.440000
v -1.475000 1.410000 -2.440000
v -1.475000 1.550000 -2.440000
v -7.025000 1.550000 -2.440000
v -7.025000 1.890000 2.440000
v -1.475000 1.890000 2.440000
v -1.475000 2.030000 2.440000
v -7.025000 2.030000 2.440000
v -7.025000 1.890000 2.500000
v -1.475000 1.890000 2.500000
v -1.475000 2.030000 2.500000
v -7.025000 2.030000 2.500000
v -7.025000 1.890000 -2.500000
v -1.475000 1.890000 -2.500000
v -1.475000 2.030000 -2.500000
v -7.025000 2.030000 -2.500000
v -7.025000 1.890000 -2.440000
v -1.475000 1.890000 -2.440000
v -1.475000 2.030000 -2.440000
v -7.025000 2.030000 -2.440000
v -6.650000 1.110000 2.480000
v -1.850000 1.110000 2.480000
v -1.850000 1.730000 2.480000
v -6.650000 1.730000 2.480000
v -6.650000 1.110000 2.500000
v -1.850000 1.110000 2.500000
v -1.850000 1.730000 2.500000
v -6.650000 1.730000 2.500000
v 1.250000 0.000000 -2.500000
v 7.250000 0.000000 -2.500000
v 7.250000 0.240000 -2.500000
v 1.250000 0.240000 -2.500000
v 1.250000 0.000000 2.500000
v 7.250000 0.000000 2.500000
v 7.250000 0.240000 2.500000
v 1.250000 0.240000 2.500000
v 1.250000 0.220000 -2.500000
v 7.250000 0.220000 -2.500000
v 7.250000 0.880000 -2.500000
v 1.250000 0.880000 -2.500000
v 1.250000 0.220000 -2.260000
v 7.250000 0.220000 -2.260000
v 7.250000 0.880000 -2.260000
v 1.250000 0.880000 -2.260000
v 1.250000 0.220000 2.260000
v 7.250000 0.220000 2.260000
v 7.250000 0.880000 2.260000
v 1.250000 0.880000 2.260000
v 1.250000 0.220000 2.500000
v 7.250000 0.220000 2.500000
v 7.250000 0.880000 2.500000
v 1.250000 0.880000 2.500000
v 1.250000 0.220000 -2.260000
v 1.490000 0.220000 -2.260000
v 1.490000 0.880000 -2.260000
v 1.250000 0.880000 -2.260000
v 1.250000 0.220000 2.260000
v 1.490000 0.220000 2.260000
v 1.490000 0.880000 2.260000
v 1.250000 0.880000 2.260000
v 7.010000 0.220000 -2.260000
v 7.250000 0.220000 -2.260000
v 7.250000 0.880000 -2.260000
v 7.010000 0.880000 -2.260000
v 7.010000 0.220000 2.260000
v 7.250000 0.220000 2.260000
v 7.250000 0.880000 2.260000
v 7.010000 0.880000 2.260000
v 1.250000 0.000000 -2.500000
v 1.570000 0.000000 -2.500000
v 1.570000 2.500000 -2.500000
v 1.250000 2.500000 -2.500000
v 1.250000 0.000000 -2.180000
v 1.570000 0.000000 -2.180000
v 1.570000 2.500000 -2.180000
v 1.250000 2.500000 -2.180000
v 1.250000 0.000000 2.180000
v 1.570000 0.000000 2.180000
v 1.570000 2.500000 2.180000
v 1.250000 2.500000 2.180000
v 1.250000 0.000000 2.500000
v 1.570000 0.000000 2.500000
v 1.570000 2.500000 2.500000
v 1.250000 2.500000 2.500000
v 6.930000 0.000000 -2.500000
v 7.250000 0.000000 -2.500000
v 7.250000 2.500000 -2.500000
v 6.930000 2.500000 -2.500000
v 6.930000 0.000000 -2.180000
v 7.250000 0.000000 -2.180000
v 7.250000 2.500000 -2.180000
v 6.930000 2.500000 -2.180000
v 6.930000 0.000000 2.180000
v 7.250000 0.000000 2.180000
v 7.250000 2.500000 2.180000
v 6.930000 2.500000 2.180000
v 6.930000 0.000000 2.500000
v 7.250000 0.000000 2.500000
v 7.250000 2.500000 2.500000
v 6.930000 2.500000 2.500000
v 1.475000 0.930000 2.440000
v 7.025000 0.930000 2.440000
v 7.025000 1.070000 2.440000
v 1.475000 1.070000 2.440000
v 1.475000 0.930000 2.500000
v 7.025000 0.930000 2.500000
v 7.025000 1.070000 2.500000
v 1.475000 1.070000 2.500000
v 1.475000 0.930000 -2.500000
v 7.025000 0.930000 -2.500000
v 7.025000 1.070000 -2.500000
v 1.475000 1.070000 -2.500000
v 1.475000 0.930000 -2.440000
v 7.025000 0.930000 -2.440000
v 7.025000 1.070000 -2.440000
v 1.475000 1.070000 -2.440000
v 1.475000 1.410000 2.440000
v 7.025000 1.410000 2.440000
v 7.025000 1.550000 2.440000
v 1.475000 1.550000 2.440000
v 1.475000 1.410000 2.500000
v 7.025000 1.410000 2.500000
v 7.025000 1.550000 2.500000
v 1.475000 1.550000 2.500000
v 1.475000 1.410000 -2.500000
v 7.025000 1.410000 -2.500000
v 7.025000 1.550000 -2.500000
v 1.475000 1.550000 -2.500000
v 1.475000 1.410000 -2.440000
v 7.025000 1.410000 -2.440000
v 7.025000 1.550000 -2.440000
v 1.475000 1.550000 -2.440000
v 1.475000 1.890000 2.440000
v 7.025000 1.890000 2.440000
v 7.025000 2.030000 2.440000
v 1.475000 2.030000 2.440000
v 1.475000 1.890000 2.500000
v 7.025000 1.890000 2.500000
v 7.025000 2.030000 2.500000
v 1.475000 2.030000 2.500000
v 1.475000 1.890000 -2.500000
v 7.025000 1.890000 -2.500000
v 7.025000 2.030000 -2.500000
v 1.475000 2.030000 -2.500000
v 1.475000 1.890000 -2.440000
v 7.025000 1.890000 -2.440000
v 7.025000 2.030000 -2.440000
v 1.475000 2.030000 -2.440000
v 1.850000 1.110000 2.480000
v 6.650000 1.110000 2.480000
v 6.650000 1.730000 2.480000
v 1.850000 1.730000 2.480000
v 1.850000 1.110000 2.500000
v 6.650000 1.110000 2.500000
v 6.650000 1.730000 2.500000
v 1.850000 1.730000 2.500000
v -3.958800 2.230000 0.000000
v -3.991314 2.230000 0.107151
v -4.059930 2.230000 0.190070
v -4.142849 2.230000 0.258686
v -4.250000 2.230000 0.291200
v -4.357151 2.230000 0.258686
v -4.440070 2.230000 0.190070
v -4.508686 2.230000 0.107151
v -4.541200 2.230000 0.000000
v -4.508686 2.230000 -0.107151
v -4.440070 2.230000 -0.190070
v -4.357151 2.230000 -0.258686
v -4.250000 2.230000 -0.291200
v -4.142849 2.230000 -0.258686
v -4.059930 2.230000 -0.190070
v -3.991314 2.230000 -0.107151
v -3.709200 2.330000 0.000000
v -3.769583 2.330000 0.198995
v -3.897012 2.330000 0.352988
v -4.051005 2.330000 0.480417
v -4.250000 2.330000 0.540800
v -4.448995 2.330000 0.480417
v -4.602988 2.330000 0.352988
v -4.730417 2.330000 0.198995
v -4.790800 2.330000 0.000000
v -4.730417 2.330000 -0.198995
v -4.602988 2.330000 -0.352988
v -4.448995 2.330000 -0.480417
v -4.250000 2.330000 -0.540800
v -4.051005 2.330000 -0.480417
v -3.897012 2.330000 -0.352988
v -3.769583 2.330000 -0.198995
v -3.605200 2.630000 0.000000
v -3.677195 2.630000 0.237264
v -3.829130 2.630000 0.420870
v -4.012736 2.630000 0.572805
v -4.250000 2.630000 0.644800
v -4.487264 2.630000 0.572805
v -4.670870 2.630000 0.420870
v -4.822805 2.630000 0.237264
v -4.894800 2.630000 0.000000
v -4.822805 2.630000 -0.237264
v -4.670870 2.630000 -0.420870
v -4.487264 2.630000 -0.572805
v -4.250000 2.630000 -0.644800
v -4.012736 2.630000 -0.572805
v -3.829130 2.630000 -0.420870
v -3.677195 2.630000 -0.237264
v -3.600000 2.970000 0.000000
v -3.672575 2.970000 0.239177
v -3.825736 2.970000 0.424264
v -4.010823 2.970000 0.577425
v -4.250000 2.970000 0.650000
v -4.489177 2.970000 0.577425
v -4.674264 2.970000 0.424264
v -4.827425 2.970000 0.239177
v -4.900000 2.970000 0.000000
v -4.827425 2.970000 -0.239177
v -4.674264 2.970000 -0.424264
v -4.489177 2.970000 -0.577425
v -4.250000 2.970000 -0.650000
v -4.010823 2.970000 -0.577425
v -3.825736 2.970000 -0.424264
v -3.672575 2.970000 -0.239177
v -3.730000 3.170000 0.000000
v -3.788060 3.170000 0.191342
v -3.910589 3.170000 0.339411
v -4.058658 3.170000 0.461940
v -4.250000 3.170000 0.520000
v -4.441342 3.170000 0.461940
v -4.589411 3.170000 0.339411
v -4.711940 3.170000 0.191342
v -4.770000 3.170000 0.000000
v -4.711940 3.170000 -0.191342
v -4.589411 3.170000 -0.339411
v -4.441342 3.170000 -0.461940
v -4.250000 3.170000 -0.520000
v -4.058658 3.170000 -0.461940
v -3.910589 3.170000 -0.339411
v -3.788060 3.170000 -0.191342
v -4.021200 3.230000 0.000000
v -4.046747 3.230000 0.084190
v -4.100659 3.230000 0.149341
v -4.165810 3.230000 0.203253
v -4.250000 3.230000 0.228800
v -4.334190 3.230000 0.203253
v -4.399341 3.230000 0.149341
v -4.453253 3.230000 0.084190
v -4.478800 3.230000 0.000000
v -4.453253 3.230000 -0.084190
v -4.399341 3.230000 -0.149341
v -4.334190 3.230000 -0.203253
v -4.250000 3.230000 -0.228800
v -4.165810 3.230000 -0.203253
v -4.100659 3.230000 -0.149341
v -4.046747 3.230000 -0.084190
v -4.250000 2.230000 0.000000
v -4.250000 3.210000 0.000000
v -4.190000 3.230000 0.000000
v -4.201459 3.230000 0.035267
v -4.231459 3.230000 0.057063
v -4.268541 3.230000 0.057063
v -4.298541 3.230000 0.035267
v -4.310000 3.230000 0.000000
v -4.298541 3.230000 -0.035267
v -4.268541 3.230000 -0.057063
v -4.231459 3.230000 -0.057063
v -4.201459 3.230000 -0.035267
v -4.190000 3.550000 0.000000
v -4.201459 3.550000 0.035267
v -4.231459 3.550000 0.057063
v -4.268541 3.550000 0.057063
v -4.298541 3.550000 0.035267
v -4.310000 3.550000 0.000000
v -4.298541 3.550000 -0.035267
v -4.268541 3.550000 -0.057063
v -4.231459 3.550000 -0.057063
v -4.201459 3.550000 -0.035267
v -4.250000 3.230000 0.000000
v -4.250000 3.550000 0.000000
v -4.170000 3.390000 -0.070000
v -3.800000 3.440000 0.000000
v -3.970000 3.470000 0.130000
v -4.170000 3.420000 0.070000
v 4.541200 2.230000 0.000000
v 4.508686 2.230000 0.107151
v 4.440070 2.230000 0.190070
v 4.357151 2.230000 0.258686
v 4.250000 2.230000 0.291200
v 4.142849 2.230000 0.258686
v 4.059930 2.230000 0.190070
v 3.991314 2.230000 0.107151
v 3.958800 2.230000 0.000000
v 3.991314 2.230000 -0.107151
v 4.059930 2.230000 -0.190070
v 4.142849 2.230000 -0.258686
v 4.250000 2.230000 -0.291200
v 4.357151 2.230000 -0.258686
v 4.440070 2.230000 -0.190070
v 4.508686 2.230000 -0.107151
v 4.790800 2.330000 0.000000
v 4.730417 2.330000 0.198995
v 4.602988 2.330000 0.352988
v 4.448995 2.330000 0.480417
v 4.250000 2.330000 0.540800
v 4.051005 2.330000 0.480417
v 3.897012 2.330000 0.352988
v 3.769583 2.330000 0.198995
v 3.709200 2.330000 0.000000
v 3.769583 2.330000 -0.198995
v 3.897012 2.330000 -0.352988
v 4.051005 2.330000 -0.480417
v 4.250000 2.330000 -0.540800
v 4.448995 2.330000 -0.480417
v 4.602988 2.330000 -0.352988
v 4.730417 2.330000 -0.198995
v 4.894800 2.630000 0.000000
v 4.822805 2.630000 0.237264
v 4.670870 2.630000 0.420870
v 4.487264 2.630000 0.572805
v 4.250000 2.630000 0.644800
v 4.012736 2.630000 0.572805
v 3.829130 2.630000 0.420870
v 3.677195 2.630000 0.237264
v 3.605200 2.630000 0.000000
v 3.677195 2.630000 -0.237264
v 3.829130 2.630000 -0.420870
v 4.012736 2.630000 -0.572805
v 4.250000 2.630000 -0.644800
v 4.487264 2.630000 -0.572805
v 4.670870 2.630000 -0.420870
v 4.822805 2.630000 -0.237264
v 4.900000 2.970000 0.000000
v 4.827425 2.970000 0.239177
v 4.674264 2.970000 0.424264
v 4.489177 2.970000 0.577425
v 4.250000 2.970000 0.650000
v 4.010823 2.970000 0.577425
v 3.825736 2.970000 0.424264
v 3.672575 2.970000 0.239177
v 3.600000 2.970000 0.000000
v 3.672575 2.970000 -0.239177
v 3.825736 2.970000 -0.424264
v 4.010823 2.970000 -0.577425
v 4.250000 2.970000 -0.650000
v 4.489177 2.970000 -0.577425
v 4.674264 2.970000 -0.424264
v 4.827425 2.970000 -0.239177
v 4.770000 3.170000 0.000000
v 4.711940 3.170000 0.191342
v 4.589411 3.170000 0.339411
v 4.441342 3.170000 0.461940
v 4.250000 3.170000 0.520000
v 4.058658 3.170000 0.461940
v 3.910589 3.170000 0.339411
v 3.788060 3.170000 0.191342
v 3.730000 3.170000 0.000000
v 3.788060 3.170000 -0.191342
v 3.910589 3.170000 -0.339411
v 4.058658 3.170000 -0.461940
v 4.250000 3.170000 -0.520000
v 4.441342 3.170000 -0.461940
v 4.589411 3.170000 -0.339411
v 4.711940 3.170000 -0.191342
v 4.478800 3.230000 0.000000
v 4.453253 3.230000 0.084190
v 4.399341 3.230000 0.149341
v 4.334190 3.230000 0.203253
v 4.250000 3.230000 0.228800
v 4.165810 3.230000 0.203253
v 4.100659 3.230000 0.149341
v 4.046747 3.230000 0.084190
v 4.021200 3.230000 0.000000
v 4.046747 3.230000 -0.084190
v 4.100659 3.230000 -0.149341
v 4.165810 3.230000 -0.203253
v 4.250000 3.230000 -0.228800
v 4.334190 3.230000 -0.203253
v 4.399341 3.230000 -0.149341
v 4.453253 3.230000 -0.084190
v 4.250000 2.230000 0.000000
v 4.250000 3.210000 0.000000
v 4.310000 3.230000 0.000000
v 4.298541 3.230000 0.035267
v 4.268541 3.230000 0.057063
v 4.231459 3.230000 0.057063
v 4.201459 3.230000 0.035267
v 4.190000 3.230000 0.000000
v 4.201459 3.230000 -0.035267
v 4.231459 3.230000 -0.057063
v 4.268541 3.230000 -0.057063
v 4.298541 3.230000 -0.035267
v 4.310000 3.550000 0.000000
v 4.298541 3.550000 0.035267
v 4.268541 3.550000 0.057063
v 4.231459 3.550000 0.057063
v 4.201459 3.550000 0.035267
v 4.190000 3.550000 0.000000
v 4.201459 3.550000 -0.035267
v 4.231459 3.550000 -0.057063
v 4.268541 3.550000 -0.057063
v 4.298541 3.550000 -0.035267
v 4.250000 3.230000 0.000000
v 4.250000 3.550000 0.000000
v 4.330000 3.390000 -0.070000
v 4.700000 3.440000 0.000000
v 4.530000 3.470000 0.130000
v 4.330000 3.420000 0.070000
v -1.600000 2.650000 3.000000
v 1.600000 2.650000 3.000000
v 1.600000 2.790000 3.000000
v -1.600000 2.790000 3.000000
v -1.600000 2.650000 4.600000
v 1.600000 2.650000 4.600000
v 1.600000 2.790000 4.600000
v -1.600000 2.790000 4.600000
v -1.600000 2.650000 3.000000
v 1.600000 2.650000 3.000000
v 1.600000 2.970000 3.000000
v -1.600000 2.970000 3.000000
v -1.600000 2.650000 3.160000
v 1.600000 2.650000 3.160000
v 1.600000 2.970000 3.160000
v -1.600000 2.970000 3.160000
v -1.600000 2.650000 3.080000
v -1.440000 2.650000 3.080000
v -1.440000 2.870000 3.080000
v -1.600000 2.870000 3.080000
v -1.600000 2.650000 4.520000
v -1.440000 2.650000 4.520000
v -1.440000 2.870000 4.520000
v -1.600000 2.870000 4.520000
v 1.440000 2.650000 3.080000
v 1.600000 2.650000 3.080000
v 1.600000 2.870000 3.080000
v 1.440000 2.870000 3.080000
v 1.440000 2.650000 4.520000
v 1.600000 2.650000 4.520000
v 1.600000 2.870000 4.520000
v 1.440000 2.870000 4.520000
v -1.600000 2.650000 4.440000
v 1.600000 2.650000 4.440000
v 1.600000 2.730000 4.440000
v -1.600000 2.730000 4.440000
v -1.600000 2.650000 4.600000
v 1.600000 2.650000 4.600000
v 1.600000 2.730000 4.600000
v -1.600000 2.730000 4.600000
v -1.200000 2.785000 3.780000
v 1.200000 2.785000 3.780000
v 1.200000 2.815000 3.780000
v -1.200000 2.815000 3.780000
v -1.200000 2.785000 3.820000
v 1.200000 2.785000 3.820000
v 1.200000 2.815000 3.820000
v -1.200000 2.815000 3.820000
v -1.750000 2.650000 3.740000
v -0.750000 2.650000 3.740000
v -0.750000 3.400000 3.740000
v -1.750000 3.400000 3.740000
v -1.750000 2.650000 3.860000
v -0.750000 2.650000 3.860000
v -0.750000 3.400000 3.860000
v -1.750000 3.400000 3.860000
v -1.420000 2.955000 3.855000
v -1.080000 2.955000 3.855000
v -1.080000 3.205000 3.855000
v -1.420000 3.205000 3.855000
v -1.420000 2.955000 3.860000
v -1.080000 2.955000 3.860000
v -1.080000 3.205000 3.860000
v -1.420000 3.205000 3.860000
v -1.285000 3.220000 3.855000
v -1.215000 3.220000 3.855000
v -1.215000 3.340000 3.855000
v -1.285000 3.340000 3.855000
v -1.285000 3.220000 3.860000
v -1.215000 3.220000 3.860000
v -1.215000 3.340000 3.860000
v -1.285000 3.340000 3.860000
v 0.750000 2.650000 3.740000
v 1.750000 2.650000 3.740000
v 1.750000 3.400000 3.740000
v 0.750000 3.400000 3.740000
v 0.750000 2.650000 3.860000
v 1.750000 2.650000 3.860000
v 1.750000 3.400000 3.860000
v 0.750000 3.400000 3.860000
v 1.080000 2.955000 3.855000
v 1.420000 2.955000 3.855000
v 1.420000 3.205000 3.855000
v 1.080000 3.205000 3.855000
v 1.080000 2.955000 3.860000
v 1.420000 2.955000 3.860000
v 1.420000 3.205000 3.860000
v 1.080000 3.205000 3.860000
v 1.215000 3.220000 3.855000
v 1.285000 3.220000 3.855000
v 1.285000 3.340000 3.855000
v 1.215000 3.340000 3.855000
v 1.215000 3.220000 3.860000
v 1.285000 3.220000 3.860000
v 1.285000 3.340000 3.860000
v 1.215000 3.340000 3.860000
usemtl Crate_WarmWood
f 1 2 3 4
f 5 8 7 6
f 1 5 6 2
f 2 6 7 3
f 3 7 8 4
f 5 1 4 8
usemtl Crate_DarkWood
f 9 10 11 12
f 13 16 15 14
f 9 13 14 10
f 10 14 15 11
f 11 15 16 12
f 13 9 12 16
f 17 18 19 20
f 21 24 23 22
f 17 21 22 18
f 18 22 23 19
f 19 23 24 20
f 21 17 20 24
f 25 26 27 28
f 29 32 31 30
f 25 29 30 26
f 26 30 31 27
f 27 31 32 28
f 29 25 28 32
f 33 34 35 36
f 37 40 39 38
f 33 37 38 34
f 34 38 39 35
f 35 39 40 36
f 37 33 36 40
usemtl Crate_WarmWood
f 41 42 43 44
f 45 48 47 46
f 41 45 46 42
f 42 46 47 43
f 43 47 48 44
f 45 41 44 48
f 49 50 51 52
f 53 56 55 54
f 49 53 54 50
f 50 54 55 51
f 51 55 56 52
f 53 49 52 56
f 57 58 59 60
f 61 64 63 62
f 57 61 62 58
f 58 62 63 59
f 59 63 64 60
f 61 57 60 64
f 65 66 67 68
f 69 72 71 70
f 65 69 70 66
f 66 70 71 67
f 67 71 72 68
f 69 65 68 72
usemtl Crate_DarkWood
f 73 74 75 76
f 77 80 79 78
f 73 77 78 74
f 74 78 79 75
f 75 79 80 76
f 77 73 76 80
f 81 82 83 84
f 85 88 87 86
f 81 85 86 82
f 82 86 87 83
f 83 87 88 84
f 85 81 84 88
f 89 90 91 92
f 93 96 95 94
f 89 93 94 90
f 90 94 95 91
f 91 95 96 92
f 93 89 92 96
f 97 98 99 100
f 101 104 103 102
f 97 101 102 98
f 98 102 103 99
f 99 103 104 100
f 101 97 100 104
f 105 106 107 108
f 109 112 111 110
f 105 109 110 106
f 106 110 111 107
f 107 111 112 108
f 109 105 108 112
f 113 114 115 116
f 117 120 119 118
f 113 117 118 114
f 114 118 119 115
f 115 119 120 116
f 117 113 116 120
usemtl AppleSkin_Ruby
f 121 122 123 124
f 125 128 127 126
f 121 125 126 122
f 122 126 127 123
f 123 127 128 124
f 125 121 124 128
usemtl Crate_WarmWood
f 129 130 131 132
f 133 136 135 134
f 129 133 134 130
f 130 134 135 131
f 131 135 136 132
f 133 129 132 136
usemtl Crate_DarkWood
f 137 138 139 140
f 141 144 143 142
f 137 141 142 138
f 138 142 143 139
f 139 143 144 140
f 141 137 140 144
f 145 146 147 148
f 149 152 151 150
f 145 149 150 146
f 146 150 151 147
f 147 151 152 148
f 149 145 148 152
f 153 154 155 156
f 157 160 159 158
f 153 157 158 154
f 154 158 159 155
f 155 159 160 156
f 157 153 156 160
f 161 162 163 164
f 165 168 167 166
f 161 165 166 162
f 162 166 167 163
f 163 167 168 164
f 165 161 164 168
usemtl Crate_WarmWood
f 169 170 171 172
f 173 176 175 174
f 169 173 174 170
f 170 174 175 171
f 171 175 176 172
f 173 169 172 176
f 177 178 179 180
f 181 184 183 182
f 177 181 182 178
f 178 182 183 179
f 179 183 184 180
f 181 177 180 184
f 185 186 187 188
f 189 192 191 190
f 185 189 190 186
f 186 190 191 187
f 187 191 192 188
f 189 185 188 192
f 193 194 195 196
f 197 200 199 198
f 193 197 198 194
f 194 198 199 195
f 195 199 200 196
f 197 193 196 200
usemtl Crate_DarkWood
f 201 202 203 204
f 205 208 207 206
f 201 205 206 202
f 202 206 207 203
f 203 207 208 204
f 205 201 204 208
f 209 210 211 212
f 213 216 215 214
f 209 213 214 210
f 210 214 215 211
f 211 215 216 212
f 213 209 212 216
f 217 218 219 220
f 221 224 223 222
f 217 221 222 218
f 218 222 223 219
f 219 223 224 220
f 221 217 220 224
f 225 226 227 228
f 229 232 231 230
f 225 229 230 226
f 226 230 231 227
f 227 231 232 228
f 229 225 228 232
f 233 234 235 236
f 237 240 239 238
f 233 237 238 234
f 234 238 239 235
f 235 239 240 236
f 237 233 236 240
f 241 242 243 244
f 245 248 247 246
f 241 245 246 242
f 242 246 247 243
f 243 247 248 244
f 245 241 244 248
usemtl AppleSkin_Honeygold
f 249 250 251 252
f 253 256 255 254
f 249 253 254 250
f 250 254 255 251
f 251 255 256 252
f 253 249 252 256
usemtl AppleSkin_Ruby
f 353 258 257
f 337 338 354
f 353 259 258
f 338 339 354
f 353 260 259
f 339 340 354
f 353 261 260
f 340 341 354
f 353 262 261
f 341 342 354
f 353 263 262
f 342 343 354
f 353 264 263
f 343 344 354
f 353 265 264
f 344 345 354
f 353 266 265
f 345 346 354
f 353 267 266
f 346 347 354
f 353 268 267
f 347 348 354
f 353 269 268
f 348 349 354
f 353 270 269
f 349 350 354
f 353 271 270
f 350 351 354
f 353 272 271
f 351 352 354
f 353 257 272
f 352 337 354
f 257 258 274 273
f 258 259 275 274
f 259 260 276 275
f 260 261 277 276
f 261 262 278 277
f 262 263 279 278
f 263 264 280 279
f 264 265 281 280
f 265 266 282 281
f 266 267 283 282
f 267 268 284 283
f 268 269 285 284
f 269 270 286 285
f 270 271 287 286
f 271 272 288 287
f 272 257 273 288
f 273 274 290 289
f 274 275 291 290
f 275 276 292 291
f 276 277 293 292
f 277 278 294 293
f 278 279 295 294
f 279 280 296 295
f 280 281 297 296
f 281 282 298 297
f 282 283 299 298
f 283 284 300 299
f 284 285 301 300
f 285 286 302 301
f 286 287 303 302
f 287 288 304 303
f 288 273 289 304
f 289 290 306 305
f 290 291 307 306
f 291 292 308 307
f 292 293 309 308
f 293 294 310 309
f 294 295 311 310
f 295 296 312 311
f 296 297 313 312
f 297 298 314 313
f 298 299 315 314
f 299 300 316 315
f 300 301 317 316
f 301 302 318 317
f 302 303 319 318
f 303 304 320 319
f 304 289 305 320
f 305 306 322 321
f 306 307 323 322
f 307 308 324 323
f 308 309 325 324
f 309 310 326 325
f 310 311 327 326
f 311 312 328 327
f 312 313 329 328
f 313 314 330 329
f 314 315 331 330
f 315 316 332 331
f 316 317 333 332
f 317 318 334 333
f 318 319 335 334
f 319 320 336 335
f 320 305 321 336
f 321 322 338 337
f 322 323 339 338
f 323 324 340 339
f 324 325 341 340
f 325 326 342 341
f 326 327 343 342
f 327 328 344 343
f 328 329 345 344
f 329 330 346 345
f 330 331 347 346
f 331 332 348 347
f 332 333 349 348
f 333 334 350 349
f 334 335 351 350
f 335 336 352 351
f 336 321 337 352
usemtl Stem_Wood
f 375 356 355
f 376 365 366
f 355 356 366 365
f 375 357 356
f 376 366 367
f 356 357 367 366
f 375 358 357
f 376 367 368
f 357 358 368 367
f 375 359 358
f 376 368 369
f 358 359 369 368
f 375 360 359
f 376 369 370
f 359 360 370 369
f 375 361 360
f 376 370 371
f 360 361 371 370
f 375 362 361
f 376 371 372
f 361 362 372 371
f 375 363 362
f 376 372 373
f 362 363 373 372
f 375 364 363
f 376 373 374
f 363 364 374 373
f 375 355 364
f 376 374 365
f 364 355 365 374
usemtl Leaf_Muted
f 377 378 379
f 377 379 380
usemtl AppleSkin_Honeygold
f 477 382 381
f 461 462 478
f 477 383 382
f 462 463 478
f 477 384 383
f 463 464 478
f 477 385 384
f 464 465 478
f 477 386 385
f 465 466 478
f 477 387 386
f 466 467 478
f 477 388 387
f 467 468 478
f 477 389 388
f 468 469 478
f 477 390 389
f 469 470 478
f 477 391 390
f 470 471 478
f 477 392 391
f 471 472 478
f 477 393 392
f 472 473 478
f 477 394 393
f 473 474 478
f 477 395 394
f 474 475 478
f 477 396 395
f 475 476 478
f 477 381 396
f 476 461 478
f 381 382 398 397
f 382 383 399 398
f 383 384 400 399
f 384 385 401 400
f 385 386 402 401
f 386 387 403 402
f 387 388 404 403
f 388 389 405 404
f 389 390 406 405
f 390 391 407 406
f 391 392 408 407
f 392 393 409 408
f 393 394 410 409
f 394 395 411 410
f 395 396 412 411
f 396 381 397 412
f 397 398 414 413
f 398 399 415 414
f 399 400 416 415
f 400 401 417 416
f 401 402 418 417
f 402 403 419 418
f 403 404 420 419
f 404 405 421 420
f 405 406 422 421
f 406 407 423 422
f 407 408 424 423
f 408 409 425 424
f 409 410 426 425
f 410 411 427 426
f 411 412 428 427
f 412 397 413 428
f 413 414 430 429
f 414 415 431 430
f 415 416 432 431
f 416 417 433 432
f 417 418 434 433
f 418 419 435 434
f 419 420 436 435
f 420 421 437 436
f 421 422 438 437
f 422 423 439 438
f 423 424 440 439
f 424 425 441 440
f 425 426 442 441
f 426 427 443 442
f 427 428 444 443
f 428 413 429 444
f 429 430 446 445
f 430 431 447 446
f 431 432 448 447
f 432 433 449 448
f 433 434 450 449
f 434 435 451 450
f 435 436 452 451
f 436 437 453 452
f 437 438 454 453
f 438 439 455 454
f 439 440 456 455
f 440 441 457 456
f 441 442 458 457
f 442 443 459 458
f 443 444 460 459
f 444 429 445 460
f 445 446 462 461
f 446 447 463 462
f 447 448 464 463
f 448 449 465 464
f 449 450 466 465
f 450 451 467 466
f 451 452 468 467
f 452 453 469 468
f 453 454 470 469
f 454 455 471 470
f 455 456 472 471
f 456 457 473 472
f 457 458 474 473
f 458 459 475 474
f 459 460 476 475
f 460 445 461 476
usemtl Stem_Wood
f 499 480 479
f 500 489 490
f 479 480 490 489
f 499 481 480
f 500 490 491
f 480 481 491 490
f 499 482 481
f 500 491 492
f 481 482 492 491
f 499 483 482
f 500 492 493
f 482 483 493 492
f 499 484 483
f 500 493 494
f 483 484 494 493
f 499 485 484
f 500 494 495
f 484 485 495 494
f 499 486 485
f 500 495 496
f 485 486 496 495
f 499 487 486
f 500 496 497
f 486 487 497 496
f 499 488 487
f 500 497 498
f 487 488 498 497
f 499 479 488
f 500 498 489
f 488 479 489 498
usemtl Leaf_Muted
f 501 502 503
f 501 503 504
usemtl Crate_WarmWood
f 505 506 507 508
f 509 512 511 510
f 505 509 510 506
f 506 510 511 507
f 507 511 512 508
f 509 505 508 512
usemtl Crate_DarkWood
f 513 514 515 516
f 517 520 519 518
f 513 517 518 514
f 514 518 519 515
f 515 519 520 516
f 517 513 516 520
f 521 522 523 524
f 525 528 527 526
f 521 525 526 522
f 522 526 527 523
f 523 527 528 524
f 525 521 524 528
f 529 530 531 532
f 533 536 535 534
f 529 533 534 530
f 530 534 535 531
f 531 535 536 532
f 533 529 532 536
f 537 538 539 540
f 541 544 543 542
f 537 541 542 538
f 538 542 543 539
f 539 543 544 540
f 541 537 540 544
usemtl Tray_Cream
f 545 546 547 548
f 549 552 551 550
f 545 549 550 546
f 546 550 551 547
f 547 551 552 548
f 549 545 548 552
usemtl Marker_Paper
f 553 554 555 556
f 557 560 559 558
f 553 557 558 554
f 554 558 559 555
f 555 559 560 556
f 557 553 556 560
usemtl AppleSkin_Ruby
f 561 562 563 564
f 565 568 567 566
f 561 565 566 562
f 562 566 567 563
f 563 567 568 564
f 565 561 564 568
usemtl Stem_Wood
f 569 570 571 572
f 573 576 575 574
f 569 573 574 570
f 570 574 575 571
f 571 575 576 572
f 573 569 572 576
usemtl Marker_Paper
f 577 578 579 580
f 581 584 583 582
f 577 581 582 578
f 578 582 583 579
f 579 583 584 580
f 581 577 580 584
usemtl AppleSkin_Honeygold
f 585 586 587 588
f 589 592 591 590
f 585 589 590 586
f 586 590 591 587
f 587 591 592 588
f 589 585 588 592
usemtl Stem_Wood
f 593 594 595 596
f 597 600 599 598
f 593 597 598 594
f 594 598 599 595
f 595 599 600 596
f 597 593 596 600
