# Pipi Labu market kit candidate 1.0.0
mtllib COLLISION_BOLLARD_05.mtl
o COLLISION_BOLLARD_05
v 0.250000 0.300000 0.000000
v 0.216506 0.300000 0.125000
v 0.125000 0.300000 0.216506
v 0.000000 0.300000 0.250000
v -0.125000 0.300000 0.216506
v -0.216506 0.300000 0.125000
v -0.250000 0.300000 0.000000
v -0.216506 0.300000 -0.125000
v -0.125000 0.300000 -0.216506
v -0.000000 0.300000 -0.250000
v 0.125000 0.300000 -0.216506
v 0.216506 0.300000 -0.125000
v 0.250000 1.100000 0.000000
v 0.216506 1.100000 0.125000
v 0.125000 1.100000 0.216506
v 0.000000 1.100000 0.250000
v -0.125000 1.100000 0.216506
v -0.216506 1.100000 0.125000
v -0.250000 1.100000 0.000000
v -0.216506 1.100000 -0.125000
v -0.125000 1.100000 -0.216506
v -0.000000 1.100000 -0.250000
v 0.125000 1.100000 -0.216506
v 0.216506 1.100000 -0.125000
usemtl CollisionProxy
f 12 11 10 9 8 7 6 5 4 3 2 1
f 13 14 15 16 17 18 19 20 21 22 23 24
f 1 2 14 13
f 2 3 15 14
f 3 4 16 15
f 4 5 17 16
f 5 6 18 17
f 6 7 19 18
f 7 8 20 19
f 8 9 21 20
f 9 10 22 21
f 10 11 23 22
f 11 12 24 23
f 12 1 13 24
