# Pipi Labu market kit candidate 1.0.0
mtllib market_kit_assembly_collision.mtl
o COLLISION_StallBay
v -6.000000 0.000000 -4.000000
v 6.000000 0.000000 -4.000000
v 6.000000 0.160000 -4.000000
v -6.000000 0.160000 -4.000000
v -6.000000 0.000000 4.000000
v 6.000000 0.000000 4.000000
v 6.000000 0.160000 4.000000
v -6.000000 0.160000 4.000000
v -5.700000 0.000000 -3.875000
v 5.700000 0.000000 -3.875000
v 5.700000 5.300000 -3.875000
v -5.700000 5.300000 -3.875000
v -5.700000 0.000000 -3.625000
v 5.700000 0.000000 -3.625000
v 5.700000 5.300000 -3.625000
v -5.700000 5.300000 -3.625000
v -5.350000 0.000000 2.050000
v 5.350000 0.000000 2.050000
v 5.350000 1.400000 2.050000
v -5.350000 1.400000 2.050000
v -5.350000 0.000000 3.050000
v 5.350000 0.000000 3.050000
v 5.350000 1.400000 3.050000
v -5.350000 1.400000 3.050000
v -6.000000 0.000000 3.275000
v -5.650000 0.000000 3.275000
v -5.650000 6.000000 3.275000
v -6.000000 6.000000 3.275000
v -6.000000 0.000000 3.625000
v -5.650000 0.000000 3.625000
v -5.650000 6.000000 3.625000
v -6.000000 6.000000 3.625000
v 5.650000 0.000000 3.275000
v 6.000000 0.000000 3.275000
v 6.000000 6.000000 3.275000
v 5.650000 6.000000 3.275000
v 5.650000 0.000000 3.625000
v 6.000000 0.000000 3.625000
v 6.000000 6.000000 3.625000
v 5.650000 6.000000 3.625000
v -6.000000 5.850000 -4.000000
v 6.000000 5.850000 -4.000000
v 6.000000 6.250000 -4.000000
v -6.000000 6.250000 -4.000000
v -6.000000 5.850000 3.600000
v 6.000000 5.850000 3.600000
v 6.000000 6.250000 3.600000
v -6.000000 6.250000 3.600000
usemtl CollisionProxy
f 1 2 3 4
f 5 8 7 6
f 1 5 6 2
f 2 6 7 3
f 3 7 8 4
f 5 1 4 8
f 9 10 11 12
f 13 16 15 14
f 9 13 14 10
f 10 14 15 11
f 11 15 16 12
f 13 9 12 16
f 17 18 19 20
f 21 24 23 22
f 17 21 22 18
f 18 22 23 19
f 19 23 24 20
f 21 17 20 24
f 25 26 27 28
f 29 32 31 30
f 25 29 30 26
f 26 30 31 27
f 27 31 32 28
f 29 25 28 32
f 33 34 35 36
f 37 40 39 38
f 33 37 38 34
f 34 38 39 35
f 35 39 40 36
f 37 33 36 40
f 41 42 43 44
f 45 48 47 46
f 41 45 46 42
f 42 46 47 43
f 43 47 48 44
f 45 41 44 48
o COLLISION_Awning
v -6.200000 5.750000 0.000000
v 6.200000 5.750000 0.000000
v 6.200000 6.050000 0.000000
v -6.200000 6.050000 0.000000
v -6.200000 5.750000 3.200000
v 6.200000 5.750000 3.200000
v 6.200000 6.050000 3.200000
v -6.200000 6.050000 3.200000
usemtl CollisionProxy
f 49 50 51 52
f 53 56 55 54
f 49 53 54 50
f 50 54 55 51
f 51 55 56 52
f 53 49 52 56
o COLLISION_BackShelf
v -3.000000 0.000000 -3.450000
v 3.000000 0.000000 -3.450000
v 3.000000 2.400000 -3.450000
v -3.000000 2.400000 -3.450000
v -3.000000 0.000000 -2.550000
v 3.000000 0.000000 -2.550000
v 3.000000 2.400000 -2.550000
v -3.000000 2.400000 -2.550000
usemtl CollisionProxy
f 57 58 59 60
f 61 64 63 62
f 57 61 62 58
f 58 62 63 59
f 59 63 64 60
f 61 57 60 64
o COLLISION_NeighborFacade
v -12.000000 0.000000 -0.150000
v -6.000000 0.000000 -0.150000
v -6.000000 5.400000 -0.150000
v -12.000000 5.400000 -0.150000
v -12.000000 0.000000 0.150000
v -6.000000 0.000000 0.150000
v -6.000000 5.400000 0.150000
v -12.000000 5.400000 0.150000
usemtl CollisionProxy
f 65 66 67 68
f 69 72 71 70
f 65 69 70 66
f 66 70 71 67
f 67 71 72 68
f 69 65 68 72
o COLLISION_AppleCrates
v -4.700000 1.500000 1.250000
v -2.300000 1.500000 1.250000
v -2.300000 3.000000 1.250000
v -4.700000 3.000000 1.250000
v -4.700000 1.500000 3.250000
v -2.300000 1.500000 3.250000
v -2.300000 3.000000 3.250000
v -4.700000 3.000000 3.250000
usemtl CollisionProxy
f 73 74 75 76
f 77 80 79 78
f 73 77 78 74
f 74 78 79 75
f 75 79 80 76
f 77 73 76 80
o COLLISION_Lantern
v 7.130000 0.000000 8.630000
v 7.370000 0.000000 8.630000
v 7.370000 4.000000 8.630000
v 7.130000 4.000000 8.630000
v 7.130000 0.000000 8.870000
v 7.370000 0.000000 8.870000
v 7.370000 4.000000 8.870000
v 7.130000 4.000000 8.870000
v 7.600000 3.775000 8.750000
v 7.553109 3.775000 8.925000
v 7.425000 3.775000 9.053109
v 7.250000 3.775000 9.100000
v 7.075000 3.775000 9.053109
v 6.946891 3.775000 8.925000
v 6.900000 3.775000 8.750000
v 6.946891 3.775000 8.575000
v 7.075000 3.775000 8.446891
v 7.250000 3.775000 8.400000
v 7.425000 3.775000 8.446891
v 7.553109 3.775000 8.575000
v 7.600000 4.525000 8.750000
v 7.553109 4.525000 8.925000
v 7.425000 4.525000 9.053109
v 7.250000 4.525000 9.100000
v 7.075000 4.525000 9.053109
v 6.946891 4.525000 8.925000
v 6.900000 4.525000 8.750000
v 6.946891 4.525000 8.575000
v 7.075000 4.525000 8.446891
v 7.250000 4.525000 8.400000
v 7.425000 4.525000 8.446891
v 7.553109 4.525000 8.575000
usemtl CollisionProxy
f 81 82 83 84
f 85 88 87 86
f 81 85 86 82
f 82 86 87 83
f 83 87 88 84
f 85 81 84 88
f 100 99 98 97 96 95 94 93 92 91 90 89
f 101 102 103 104 105 106 107 108 109 110 111 112
f 89 90 102 101
f 90 91 103 102
f 91 92 104 103
f 92 93 105 104
f 93 94 106 105
f 94 95 107 106
f 95 96 108 107
f 96 97 109 108
f 97 98 110 109
f 98 99 111 110
f 99 100 112 111
f 100 89 101 112
o COLLISION_Planter
v -8.250000 0.000000 8.300000
v -6.250000 0.000000 8.300000
v -6.250000 0.760000 8.300000
v -8.250000 0.760000 8.300000
v -8.250000 0.000000 9.200000
v -6.250000 0.000000 9.200000
v -6.250000 0.760000 9.200000
v -8.250000 0.760000 9.200000
usemtl CollisionProxy
f 113 114 115 116
f 117 120 119 118
f 113 117 118 114
f 114 118 119 115
f 115 119 120 116
f 117 113 116 120
o COLLISION_Drain
v -2.000000 0.000000 11.600000
v 2.000000 0.000000 11.600000
v 2.000000 0.160000 11.600000
v -2.000000 0.160000 11.600000
v -2.000000 0.000000 11.900000
v 2.000000 0.000000 11.900000
v 2.000000 0.160000 11.900000
v -2.000000 0.160000 11.900000
usemtl CollisionProxy
f 121 122 123 124
f 125 128 127 126
f 121 125 126 122
f 122 126 127 123
f 123 127 128 124
f 125 121 124 128
o COLLISION_Curb
v -2.000000 0.000000 12.175000
v 2.000000 0.000000 12.175000
v 2.000000 0.450000 12.175000
v -2.000000 0.450000 12.175000
v -2.000000 0.000000 12.825000
v 2.000000 0.000000 12.825000
v 2.000000 0.450000 12.825000
v -2.000000 0.450000 12.825000
usemtl CollisionProxy
f 129 130 131 132
f 133 136 135 134
f 129 133 134 130
f 130 134 135 131
f 131 135 136 132
f 133 129 132 136
o COLLISION_EdgeBollard
v 7.500000 0.300000 10.750000
v 7.466506 0.300000 10.875000
v 7.375000 0.300000 10.966506
v 7.250000 0.300000 11.000000
v 7.125000 0.300000 10.966506
v 7.033494 0.300000 10.875000
v 7.000000 0.300000 10.750000
v 7.033494 0.300000 10.625000
v 7.125000 0.300000 10.533494
v 7.250000 0.300000 10.500000
v 7.375000 0.300000 10.533494
v 7.466506 0.300000 10.625000
v 7.500000 1.100000 10.750000
v 7.466506 1.100000 10.875000
v 7.375000 1.100000 10.966506
v 7.250000 1.100000 11.000000
v 7.125000 1.100000 10.966506
v 7.033494 1.100000 10.875000
v 7.000000 1.100000 10.750000
v 7.033494 1.100000 10.625000
v 7.125000 1.100000 10.533494
v 7.250000 1.100000 10.500000
v 7.375000 1.100000 10.533494
v 7.466506 1.100000 10.625000
usemtl CollisionProxy
f 148 147 146 145 144 143 142 141 140 139 138 137
f 149 150 151 152 153 154 155 156 157 158 159 160
f 137 138 150 149
f 138 139 151 150
f 139 140 152 151
f 140 141 153 152
f 141 142 154 153
f 142 143 155 154
f 143 144 156 155
f 144 145 157 156
f 145 146 158 157
f 146 147 159 158
f 147 148 160 159
f 148 137 149 160
