# Pipi Labu market kit candidate 1.0.0
mtllib market_kit_assembly.mtl
o StallBay
v -6.000000 0.000000 -4.000000
v 6.000000 0.000000 -4.000000
v 6.000000 0.160000 -4.000000
v -6.000000 0.160000 -4.000000
v -6.000000 0.000000 4.000000
v 6.000000 0.000000 4.000000
v 6.000000 0.160000 4.000000
v -6.000000 0.160000 4.000000
v -5.700000 0.000000 -3.875000
v 5.700000 0.000000 -3.875000
v 5.700000 5.300000 -3.875000
v -5.700000 5.300000 -3.875000
v -5.700000 0.000000 -3.625000
v 5.700000 0.000000 -3.625000
v 5.700000 5.300000 -3.625000
v -5.700000 5.300000 -3.625000
v -6.000000 0.000000 3.275000
v -5.650000 0.000000 3.275000
v -5.650000 6.000000 3.275000
v -6.000000 6.000000 3.275000
v -6.000000 0.000000 3.625000
v -5.650000 0.000000 3.625000
v -5.650000 6.000000 3.625000
v -6.000000 6.000000 3.625000
v 5.650000 0.000000 3.275000
v 6.000000 0.000000 3.275000
v 6.000000 6.000000 3.275000
v 5.650000 6.000000 3.275000
v 5.650000 0.000000 3.625000
v 6.000000 0.000000 3.625000
v 6.000000 6.000000 3.625000
v 5.650000 6.000000 3.625000
v -6.000000 0.000000 -3.625000
v -5.650000 0.000000 -3.625000
v -5.650000 6.000000 -3.625000
v -6.000000 6.000000 -3.625000
v -6.000000 0.000000 -3.275000
v -5.650000 0.000000 -3.275000
v -5.650000 6.000000 -3.275000
v -6.000000 6.000000 -3.275000
v 5.650000 0.000000 -3.625000
v 6.000000 0.000000 -3.625000
v 6.000000 6.000000 -3.625000
v 5.650000 6.000000 -3.625000
v 5.650000 0.000000 -3.275000
v 6.000000 0.000000 -3.275000
v 6.000000 6.000000 -3.275000
v 5.650000 6.000000 -3.275000
v -5.350000 0.000000 2.050000
v 5.350000 0.000000 2.050000
v 5.350000 1.400000 2.050000
v -5.350000 1.400000 2.050000
v -5.350000 0.000000 3.050000
v 5.350000 0.000000 3.050000
v 5.350000 1.400000 3.050000
v -5.350000 1.400000 3.050000
v -5.500000 1.400000 2.000000
v 5.500000 1.400000 2.000000
v 5.500000 1.600000 2.000000
v -5.500000 1.600000 2.000000
v -5.500000 1.400000 3.300000
v 5.500000 1.400000 3.300000
v 5.500000 1.600000 3.300000
v -5.500000 1.600000 3.300000
v -6.000000 5.850000 -4.000000
v 6.000000 5.850000 -4.000000
v 6.000000 6.250000 -4.000000
v -6.000000 6.250000 -4.000000
v -6.000000 5.850000 3.600000
v 6.000000 5.850000 3.600000
v 6.000000 6.250000 3.600000
v -6.000000 6.250000 3.600000
v -6.000000 5.425000 3.600000
v 6.000000 5.425000 3.600000
v 6.000000 5.775000 3.600000
v -6.000000 5.775000 3.600000
v -6.000000 5.425000 4.000000
v 6.000000 5.425000 4.000000
v 6.000000 5.775000 4.000000
v -6.000000 5.775000 4.000000
v -6.000000 3.000000 -3.200000
v -5.840000 3.000000 -3.200000
v -5.840000 5.400000 -3.200000
v -6.000000 5.400000 -3.200000
v -6.000000 3.000000 3.600000
v -5.840000 3.000000 3.600000
v -5.840000 5.400000 3.600000
v -6.000000 5.400000 3.600000
v 5.840000 3.000000 -3.200000
v 6.000000 3.000000 -3.200000
v 6.000000 5.400000 -3.200000
v 5.840000 5.400000 -3.200000
v 5.840000 3.000000 3.600000
v 6.000000 3.000000 3.600000
v 6.000000 5.400000 3.600000
v 5.840000 5.400000 3.600000
usemtl WoodWarm
f 1 2 3 4
f 5 8 7 6
f 1 5 6 2
f 2 6 7 3
f 3 7 8 4
f 5 1 4 8
usemtl PlasterCream
f 9 10 11 12
f 13 16 15 14
f 9 13 14 10
f 10 14 15 11
f 11 15 16 12
f 13 9 12 16
usemtl WoodDark
f 17 18 19 20
f 21 24 23 22
f 17 21 22 18
f 18 22 23 19
f 19 23 24 20
f 21 17 20 24
f 25 26 27 28
f 29 32 31 30
f 25 29 30 26
f 26 30 31 27
f 27 31 32 28
f 29 25 28 32
f 33 34 35 36
f 37 40 39 38
f 33 37 38 34
f 34 38 39 35
f 35 39 40 36
f 37 33 36 40
f 41 42 43 44
f 45 48 47 46
f 41 45 46 42
f 42 46 47 43
f 43 47 48 44
f 45 41 44 48
f 49 50 51 52
f 53 56 55 54
f 49 53 54 50
f 50 54 55 51
f 51 55 56 52
f 53 49 52 56
usemtl WoodWarm
f 57 58 59 60
f 61 64 63 62
f 57 61 62 58
f 58 62 63 59
f 59 63 64 60
f 61 57 60 64
usemtl PlasterCream
f 65 66 67 68
f 69 72 71 70
f 65 69 70 66
f 66 70 71 67
f 67 71 72 68
f 69 65 68 72
usemtl WoodWarm
f 73 74 75 76
f 77 80 79 78
f 73 77 78 74
f 74 78 79 75
f 75 79 80 76
f 77 73 76 80
f 81 82 83 84
f 85 88 87 86
f 81 85 86 82
f 82 86 87 83
f 83 87 88 84
f 85 81 84 88
f 89 90 91 92
f 93 96 95 94
f 89 93 94 90
f 90 94 95 91
f 91 95 96 92
f 93 89 92 96
o Awning
v -6.200000 5.750000 0.000000
v 6.200000 5.750000 0.000000
v 6.200000 6.050000 0.000000
v -6.200000 6.050000 0.000000
v -6.200000 5.750000 3.200000
v 6.200000 5.750000 3.200000
v 6.200000 6.050000 3.200000
v -6.200000 6.050000 3.200000
v -6.200000 5.750000 3.060000
v 6.200000 5.750000 3.060000
v 6.200000 5.830000 3.060000
v -6.200000 5.830000 3.060000
v -6.200000 5.750000 3.200000
v 6.200000 5.750000 3.200000
v 6.200000 5.830000 3.200000
v -6.200000 5.830000 3.200000
v -6.000000 6.060000 0.060000
v -5.200000 6.060000 0.060000
v -5.200000 6.070000 0.060000
v -6.000000 6.070000 0.060000
v -6.000000 6.060000 3.140000
v -5.200000 6.060000 3.140000
v -5.200000 6.070000 3.140000
v -6.000000 6.070000 3.140000
v -4.100000 6.060000 0.060000
v -3.300000 6.060000 0.060000
v -3.300000 6.070000 0.060000
v -4.100000 6.070000 0.060000
v -4.100000 6.060000 3.140000
v -3.300000 6.060000 3.140000
v -3.300000 6.070000 3.140000
v -4.100000 6.070000 3.140000
v -2.200000 6.060000 0.060000
v -1.400000 6.060000 0.060000
v -1.400000 6.070000 0.060000
v -2.200000 6.070000 0.060000
v -2.200000 6.060000 3.140000
v -1.400000 6.060000 3.140000
v -1.400000 6.070000 3.140000
v -2.200000 6.070000 3.140000
v -0.400000 6.060000 0.060000
v 0.400000 6.060000 0.060000
v 0.400000 6.070000 0.060000
v -0.400000 6.070000 0.060000
v -0.400000 6.060000 3.140000
v 0.400000 6.060000 3.140000
v 0.400000 6.070000 3.140000
v -0.400000 6.070000 3.140000
v 1.400000 6.060000 0.060000
v 2.200000 6.060000 0.060000
v 2.200000 6.070000 0.060000
v 1.400000 6.070000 0.060000
v 1.400000 6.060000 3.140000
v 2.200000 6.060000 3.140000
v 2.200000 6.070000 3.140000
v 1.400000 6.070000 3.140000
v 3.300000 6.060000 0.060000
v 4.100000 6.060000 0.060000
v 4.100000 6.070000 0.060000
v 3.300000 6.070000 0.060000
v 3.300000 6.060000 3.140000
v 4.100000 6.060000 3.140000
v 4.100000 6.070000 3.140000
v 3.300000 6.070000 3.140000
v 5.200000 6.060000 0.060000
v 6.000000 6.060000 0.060000
v 6.000000 6.070000 0.060000
v 5.200000 6.070000 0.060000
v 5.200000 6.060000 3.140000
v 6.000000 6.060000 3.140000
v 6.000000 6.070000 3.140000
v 5.200000 6.070000 3.140000
usemtl CanvasVermilion
f 97 98 99 100
f 101 104 103 102
f 97 101 102 98
f 98 102 103 99
f 99 103 104 100
f 101 97 100 104
usemtl CanvasPaper
f 105 106 107 108
f 109 112 111 110
f 105 109 110 106
f 106 110 111 107
f 107 111 112 108
f 109 105 108 112
usemtl CanvasVermilion
f 113 114 115 116
f 117 120 119 118
f 113 117 118 114
f 114 118 119 115
f 115 119 120 116
f 117 113 116 120
usemtl CanvasPaper
f 121 122 123 124
f 125 128 127 126
f 121 125 126 122
f 122 126 127 123
f 123 127 128 124
f 125 121 124 128
usemtl CanvasVermilion
f 129 130 131 132
f 133 136 135 134
f 129 133 134 130
f 130 134 135 131
f 131 135 136 132
f 133 129 132 136
usemtl CanvasPaper
f 137 138 139 140
f 141 144 143 142
f 137 141 142 138
f 138 142 143 139
f 139 143 144 140
f 141 137 140 144
usemtl CanvasVermilion
f 145 146 147 148
f 149 152 151 150
f 145 149 150 146
f 146 150 151 147
f 147 151 152 148
f 149 145 148 152
usemtl CanvasPaper
f 153 154 155 156
f 157 160 159 158
f 153 157 158 154
f 154 158 159 155
f 155 159 160 156
f 157 153 156 160
usemtl CanvasVermilion
f 161 162 163 164
f 165 168 167 166
f 161 165 166 162
f 162 166 167 163
f 163 167 168 164
f 165 161 164 168
o BackShelf
v -2.900000 0.000000 -2.850000
v 2.900000 0.000000 -2.850000
v 2.900000 2.400000 -2.850000
v -2.900000 2.400000 -2.850000
v -2.900000 0.000000 -2.550000
v 2.900000 0.000000 -2.550000
v 2.900000 2.400000 -2.550000
v -2.900000 2.400000 -2.550000
v -3.000000 0.590000 -3.450000
v 3.000000 0.590000 -3.450000
v 3.000000 0.770000 -3.450000
v -3.000000 0.770000 -3.450000
v -3.000000 0.590000 -2.590000
v 3.000000 0.590000 -2.590000
v 3.000000 0.770000 -2.590000
v -3.000000 0.770000 -2.590000
v -3.000000 1.510000 -3.450000
v 3.000000 1.510000 -3.450000
v 3.000000 1.690000 -3.450000
v -3.000000 1.690000 -3.450000
v -3.000000 1.510000 -2.590000
v 3.000000 1.510000 -2.590000
v 3.000000 1.690000 -2.590000
v -3.000000 1.690000 -2.590000
v -3.000000 2.160000 -3.450000
v 3.000000 2.160000 -3.450000
v 3.000000 2.400000 -3.450000
v -3.000000 2.400000 -3.450000
v -3.000000 2.160000 -2.590000
v 3.000000 2.160000 -2.590000
v 3.000000 2.400000 -2.590000
v -3.000000 2.400000 -2.590000
v -3.000000 0.000000 -3.440000
v -2.760000 0.000000 -3.440000
v -2.760000 2.400000 -3.440000
v -3.000000 2.400000 -3.440000
v -3.000000 0.000000 -2.600000
v -2.760000 0.000000 -2.600000
v -2.760000 2.400000 -2.600000
v -3.000000 2.400000 -2.600000
v 2.760000 0.000000 -3.440000
v 3.000000 0.000000 -3.440000
v 3.000000 2.400000 -3.440000
v 2.760000 2.400000 -3.440000
v 2.760000 0.000000 -2.600000
v 3.000000 0.000000 -2.600000
v 3.000000 2.400000 -2.600000
v 2.760000 2.400000 -2.600000
usemtl WoodDark
f 169 170 171 172
f 173 176 175 174
f 169 173 174 170
f 170 174 175 171
f 171 175 176 172
f 173 169 172 176
usemtl WoodWarm
f 177 178 179 180
f 181 184 183 182
f 177 181 182 178
f 178 182 183 179
f 179 183 184 180
f 181 177 180 184
f 185 186 187 188
f 189 192 191 190
f 185 189 190 186
f 186 190 191 187
f 187 191 192 188
f 189 185 188 192
usemtl WoodDark
f 193 194 195 196
f 197 200 199 198
f 193 197 198 194
f 194 198 199 195
f 195 199 200 196
f 197 193 196 200
f 201 202 203 204
f 205 208 207 206
f 201 205 206 202
f 202 206 207 203
f 203 207 208 204
f 205 201 204 208
f 209 210 211 212
f 213 216 215 214
f 209 213 214 210
f 210 214 215 211
f 211 215 216 212
f 213 209 212 216
o NeighborFacade
v -12.000000 0.000000 -0.150000
v -6.000000 0.000000 -0.150000
v -6.000000 5.400000 -0.150000
v -12.000000 5.400000 -0.150000
v -12.000000 0.000000 0.150000
v -6.000000 0.000000 0.150000
v -6.000000 5.400000 0.150000
v -12.000000 5.400000 0.150000
v -12.000000 0.000000 -0.150000
v -6.000000 0.000000 -0.150000
v -6.000000 0.360000 -0.150000
v -12.000000 0.360000 -0.150000
v -12.000000 0.000000 0.150000
v -6.000000 0.000000 0.150000
v -6.000000 0.360000 0.150000
v -12.000000 0.360000 0.150000
v -12.000000 4.900000 -0.150000
v -6.000000 4.900000 -0.150000
v -6.000000 5.400000 -0.150000
v -12.000000 5.400000 -0.150000
v -12.000000 4.900000 0.150000
v -6.000000 4.900000 0.150000
v -6.000000 5.400000 0.150000
v -12.000000 5.400000 0.150000
usemtl PlasterCream
f 217 218 219 220
f 221 224 223 222
f 217 221 222 218
f 218 222 223 219
f 219 223 224 220
f 221 217 220 224
usemtl WoodDark
f 225 226 227 228
f 229 232 231 230
f 225 229 230 226
f 226 230 231 227
f 227 231 232 228
f 229 225 228 232
usemtl WoodWarm
f 233 234 235 236
f 237 240 239 238
f 233 237 238 234
f 234 238 239 235
f 235 239 240 236
f 237 233 236 240
o AppleCrates
v -4.700000 1.500000 1.250000
v -2.300000 1.500000 1.250000
v -2.300000 2.100000 1.250000
v -4.700000 2.100000 1.250000
v -4.700000 1.500000 3.250000
v -2.300000 1.500000 3.250000
v -2.300000 2.100000 3.250000
v -4.700000 2.100000 3.250000
v -4.700000 2.080000 1.250000
v -2.300000 2.080000 1.250000
v -2.300000 2.200000 1.250000
v -4.700000 2.200000 1.250000
v -4.700000 2.080000 1.370000
v -2.300000 2.080000 1.370000
v -2.300000 2.200000 1.370000
v -4.700000 2.200000 1.370000
v -4.700000 2.080000 3.130000
v -2.300000 2.080000 3.130000
v -2.300000 2.200000 3.130000
v -4.700000 2.200000 3.130000
v -4.700000 2.080000 3.250000
v -2.300000 2.080000 3.250000
v -2.300000 2.200000 3.250000
v -4.700000 2.200000 3.250000
v -4.600000 2.300000 1.350000
v -2.400000 2.300000 1.350000
v -2.400000 2.700000 1.350000
v -4.600000 2.700000 1.350000
v -4.600000 2.300000 3.150000
v -2.400000 2.300000 3.150000
v -2.400000 2.700000 3.150000
v -4.600000 2.700000 3.150000
v -4.700000 2.790000 1.250000
v -2.300000 2.790000 1.250000
v -2.300000 2.910000 1.250000
v -4.700000 2.910000 1.250000
v -4.700000 2.790000 1.370000
v -2.300000 2.790000 1.370000
v -2.300000 2.910000 1.370000
v -4.700000 2.910000 1.370000
v -4.700000 2.790000 3.130000
v -2.300000 2.790000 3.130000
v -2.300000 2.910000 3.130000
v -4.700000 2.910000 3.130000
v -4.700000 2.790000 3.250000
v -2.300000 2.790000 3.250000
v -2.300000 2.910000 3.250000
v -4.700000 2.910000 3.250000
v -4.700000 2.880000 1.250000
v -2.300000 2.880000 1.250000
v -2.300000 3.000000 1.250000
v -4.700000 3.000000 1.250000
v -4.700000 2.880000 3.250000
v -2.300000 2.880000 3.250000
v -2.300000 3.000000 3.250000
v -4.700000 3.000000 3.250000
usemtl WoodWarm
f 241 242 243 244
f 245 248 247 246
f 241 245 246 242
f 242 246 247 243
f 243 247 248 244
f 245 241 244 248
usemtl WoodDark
f 249 250 251 252
f 253 256 255 254
f 249 253 254 250
f 250 254 255 251
f 251 255 256 252
f 253 249 252 256
f 257 258 259 260
f 261 264 263 262
f 257 261 262 258
f 258 262 263 259
f 259 263 264 260
f 261 257 260 264
usemtl WoodWarm
f 265 266 267 268
f 269 272 271 270
f 265 269 270 266
f 266 270 271 267
f 267 271 272 268
f 269 265 268 272
usemtl WoodDark
f 273 274 275 276
f 277 280 279 278
f 273 277 278 274
f 274 278 279 275
f 275 279 280 276
f 277 273 276 280
f 281 282 283 284
f 285 288 287 286
f 281 285 286 282
f 282 286 287 283
f 283 287 288 284
f 285 281 284 288
f 289 290 291 292
f 293 296 295 294
f 289 293 294 290
f 290 294 295 291
f 291 295 296 292
f 293 289 292 296
o FruitTray
v 0.900000 1.500000 1.900000
v 4.100000 1.500000 1.900000
v 4.100000 1.940000 1.900000
v 0.900000 1.940000 1.900000
v 0.900000 1.500000 3.100000
v 4.100000 1.500000 3.100000
v 4.100000 1.940000 3.100000
v 0.900000 1.940000 3.100000
v 0.900000 2.130000 1.900000
v 4.100000 2.130000 1.900000
v 4.100000 2.270000 1.900000
v 0.900000 2.270000 1.900000
v 0.900000 2.130000 2.040000
v 4.100000 2.130000 2.040000
v 4.100000 2.270000 2.040000
v 0.900000 2.270000 2.040000
v 0.900000 2.130000 2.960000
v 4.100000 2.130000 2.960000
v 4.100000 2.270000 2.960000
v 0.900000 2.270000 2.960000
v 0.900000 2.130000 3.100000
v 4.100000 2.130000 3.100000
v 4.100000 2.270000 3.100000
v 0.900000 2.270000 3.100000
v 0.900000 1.960000 2.000000
v 1.040000 1.960000 2.000000
v 1.040000 2.440000 2.000000
v 0.900000 2.440000 2.000000
v 0.900000 1.960000 3.000000
v 1.040000 1.960000 3.000000
v 1.040000 2.440000 3.000000
v 0.900000 2.440000 3.000000
v 3.960000 1.960000 2.000000
v 4.100000 1.960000 2.000000
v 4.100000 2.440000 2.000000
v 3.960000 2.440000 2.000000
v 3.960000 1.960000 3.000000
v 4.100000 1.960000 3.000000
v 4.100000 2.440000 3.000000
v 3.960000 2.440000 3.000000
v 1.580000 2.090000 2.500000
v 1.549186 2.090000 2.615000
v 1.465000 2.090000 2.699186
v 1.350000 2.090000 2.730000
v 1.235000 2.090000 2.699186
v 1.150814 2.090000 2.615000
v 1.120000 2.090000 2.500000
v 1.150814 2.090000 2.385000
v 1.235000 2.090000 2.300814
v 1.350000 2.090000 2.270000
v 1.465000 2.090000 2.300814
v 1.549186 2.090000 2.385000
v 1.580000 2.550000 2.500000
v 1.549186 2.550000 2.615000
v 1.465000 2.550000 2.699186
v 1.350000 2.550000 2.730000
v 1.235000 2.550000 2.699186
v 1.150814 2.550000 2.615000
v 1.120000 2.550000 2.500000
v 1.150814 2.550000 2.385000
v 1.235000 2.550000 2.300814
v 1.350000 2.550000 2.270000
v 1.465000 2.550000 2.300814
v 1.549186 2.550000 2.385000
v 2.350000 2.090000 2.500000
v 2.319186 2.090000 2.615000
v 2.235000 2.090000 2.699186
v 2.120000 2.090000 2.730000
v 2.005000 2.090000 2.699186
v 1.920814 2.090000 2.615000
v 1.890000 2.090000 2.500000
v 1.920814 2.090000 2.385000
v 2.005000 2.090000 2.300814
v 2.120000 2.090000 2.270000
v 2.235000 2.090000 2.300814
v 2.319186 2.090000 2.385000
v 2.350000 2.550000 2.500000
v 2.319186 2.550000 2.615000
v 2.235000 2.550000 2.699186
v 2.120000 2.550000 2.730000
v 2.005000 2.550000 2.699186
v 1.920814 2.550000 2.615000
v 1.890000 2.550000 2.500000
v 1.920814 2.550000 2.385000
v 2.005000 2.550000 2.300814
v 2.120000 2.550000 2.270000
v 2.235000 2.550000 2.300814
v 2.319186 2.550000 2.385000
v 3.110000 2.090000 2.500000
v 3.079186 2.090000 2.615000
v 2.995000 2.090000 2.699186
v 2.880000 2.090000 2.730000
v 2.765000 2.090000 2.699186
v 2.680814 2.090000 2.615000
v 2.650000 2.090000 2.500000
v 2.680814 2.090000 2.385000
v 2.765000 2.090000 2.300814
v 2.880000 2.090000 2.270000
v 2.995000 2.090000 2.300814
v 3.079186 2.090000 2.385000
v 3.110000 2.550000 2.500000
v 3.079186 2.550000 2.615000
v 2.995000 2.550000 2.699186
v 2.880000 2.550000 2.730000
v 2.765000 2.550000 2.699186
v 2.680814 2.550000 2.615000
v 2.650000 2.550000 2.500000
v 2.680814 2.550000 2.385000
v 2.765000 2.550000 2.300814
v 2.880000 2.550000 2.270000
v 2.995000 2.550000 2.300814
v 3.079186 2.550000 2.385000
v 3.880000 2.090000 2.500000
v 3.849186 2.090000 2.615000
v 3.765000 2.090000 2.699186
v 3.650000 2.090000 2.730000
v 3.535000 2.090000 2.699186
v 3.450814 2.090000 2.615000
v 3.420000 2.090000 2.500000
v 3.450814 2.090000 2.385000
v 3.535000 2.090000 2.300814
v 3.650000 2.090000 2.270000
v 3.765000 2.090000 2.300814
v 3.849186 2.090000 2.385000
v 3.880000 2.550000 2.500000
v 3.849186 2.550000 2.615000
v 3.765000 2.550000 2.699186
v 3.650000 2.550000 2.730000
v 3.535000 2.550000 2.699186
v 3.450814 2.550000 2.615000
v 3.420000 2.550000 2.500000
v 3.450814 2.550000 2.385000
v 3.535000 2.550000 2.300814
v 3.650000 2.550000 2.270000
v 3.765000 2.550000 2.300814
v 3.849186 2.550000 2.385000
usemtl WoodWarm
f 297 298 299 300
f 301 304 303 302
f 297 301 302 298
f 298 302 303 299
f 299 303 304 300
f 301 297 300 304
usemtl WoodDark
f 305 306 307 308
f 309 312 311 310
f 305 309 310 306
f 306 310 311 307
f 307 311 312 308
f 309 305 308 312
f 313 314 315 316
f 317 320 319 318
f 313 317 318 314
f 314 318 319 315
f 315 319 320 316
f 317 313 316 320
f 321 322 323 324
f 325 328 327 326
f 321 325 326 322
f 322 326 327 323
f 323 327 328 324
f 325 321 324 328
f 329 330 331 332
f 333 336 335 334
f 329 333 334 330
f 330 334 335 331
f 331 335 336 332
f 333 329 332 336
usemtl FruitHoneygold
f 348 347 346 345 344 343 342 341 340 339 338 337
f 349 350 351 352 353 354 355 356 357 358 359 360
f 337 338 350 349
f 338 339 351 350
f 339 340 352 351
f 340 341 353 352
f 341 342 354 353
f 342 343 355 354
f 343 344 356 355
f 344 345 357 356
f 345 346 358 357
f 346 347 359 358
f 347 348 360 359
f 348 337 349 360
usemtl FruitRuby
f 372 371 370 369 368 367 366 365 364 363 362 361
f 373 374 375 376 377 378 379 380 381 382 383 384
f 361 362 374 373
f 362 363 375 374
f 363 364 376 375
f 364 365 377 376
f 365 366 378 377
f 366 367 379 378
f 367 368 380 379
f 368 369 381 380
f 369 370 382 381
f 370 371 383 382
f 371 372 384 383
f 372 361 373 384
usemtl FruitHoneygold
f 396 395 394 393 392 391 390 389 388 387 386 385
f 397 398 399 400 401 402 403 404 405 406 407 408
f 385 386 398 397
f 386 387 399 398
f 387 388 400 399
f 388 389 401 400
f 389 390 402 401
f 390 391 403 402
f 391 392 404 403
f 392 393 405 404
f 393 394 406 405
f 394 395 407 406
f 395 396 408 407
f 396 385 397 408
usemtl FruitRuby
f 420 419 418 417 416 415 414 413 412 411 410 409
f 421 422 423 424 425 426 427 428 429 430 431 432
f 409 410 422 421
f 410 411 423 422
f 411 412 424 423
f 412 413 425 424
f 413 414 426 425
f 414 415 427 426
f 415 416 428 427
f 416 417 429 428
f 417 418 430 429
f 418 419 431 430
f 419 420 432 431
f 420 409 421 432
o Sign
v -1.600000 4.500000 -4.090000
v 1.600000 4.500000 -4.090000
v 1.600000 5.500000 -4.090000
v -1.600000 5.500000 -4.090000
v -1.600000 4.500000 -3.910000
v 1.600000 4.500000 -3.910000
v 1.600000 5.500000 -3.910000
v -1.600000 5.500000 -3.910000
v -1.600000 5.370000 -4.090000
v 1.600000 5.370000 -4.090000
v 1.600000 5.450000 -4.090000
v -1.600000 5.450000 -4.090000
v -1.600000 5.370000 -3.910000
v 1.600000 5.370000 -3.910000
v 1.600000 5.450000 -3.910000
v -1.600000 5.450000 -3.910000
v -1.600000 4.550000 -4.090000
v 1.600000 4.550000 -4.090000
v 1.600000 4.630000 -4.090000
v -1.600000 4.630000 -4.090000
v -1.600000 4.550000 -3.910000
v 1.600000 4.550000 -3.910000
v 1.600000 4.630000 -3.910000
v -1.600000 4.630000 -3.910000
usemtl CanvasPaper
f 433 434 435 436
f 437 440 439 438
f 433 437 438 434
f 434 438 439 435
f 435 439 440 436
f 437 433 436 440
usemtl WoodDark
f 441 442 443 444
f 445 448 447 446
f 441 445 446 442
f 442 446 447 443
f 443 447 448 444
f 445 441 444 448
f 449 450 451 452
f 453 456 455 454
f 449 453 454 450
f 450 454 455 451
f 451 455 456 452
f 453 449 452 456
o Lantern
v 7.130000 0.000000 8.630000
v 7.370000 0.000000 8.630000
v 7.370000 4.000000 8.630000
v 7.130000 4.000000 8.630000
v 7.130000 0.000000 8.870000
v 7.370000 0.000000 8.870000
v 7.370000 4.000000 8.870000
v 7.130000 4.000000 8.870000
v 7.600000 3.775000 8.750000
v 7.553109 3.775000 8.925000
v 7.425000 3.775000 9.053109
v 7.250000 3.775000 9.100000
v 7.075000 3.775000 9.053109
v 6.946891 3.775000 8.925000
v 6.900000 3.775000 8.750000
v 6.946891 3.775000 8.575000
v 7.075000 3.775000 8.446891
v 7.250000 3.775000 8.400000
v 7.425000 3.775000 8.446891
v 7.553109 3.775000 8.575000
v 7.600000 4.525000 8.750000
v 7.553109 4.525000 8.925000
v 7.425000 4.525000 9.053109
v 7.250000 4.525000 9.100000
v 7.075000 4.525000 9.053109
v 6.946891 4.525000 8.925000
v 6.900000 4.525000 8.750000
v 6.946891 4.525000 8.575000
v 7.075000 4.525000 8.446891
v 7.250000 4.525000 8.400000
v 7.425000 4.525000 8.446891
v 7.553109 4.525000 8.575000
v 7.700000 4.550000 8.750000
v 7.639711 4.550000 8.975000
v 7.475000 4.550000 9.139711
v 7.250000 4.550000 9.200000
v 7.025000 4.550000 9.139711
v 6.860289 4.550000 8.975000
v 6.800000 4.550000 8.750000
v 6.860289 4.550000 8.525000
v 7.025000 4.550000 8.360289
v 7.250000 4.550000 8.300000
v 7.475000 4.550000 8.360289
v 7.639711 4.550000 8.525000
v 7.700000 4.700000 8.750000
v 7.639711 4.700000 8.975000
v 7.475000 4.700000 9.139711
v 7.250000 4.700000 9.200000
v 7.025000 4.700000 9.139711
v 6.860289 4.700000 8.975000
v 6.800000 4.700000 8.750000
v 6.860289 4.700000 8.525000
v 7.025000 4.700000 8.360289
v 7.250000 4.700000 8.300000
v 7.475000 4.700000 8.360289
v 7.639711 4.700000 8.525000
usemtl WoodDark
f 457 458 459 460
f 461 464 463 462
f 457 461 462 458
f 458 462 463 459
f 459 463 464 460
f 461 457 460 464
usemtl LanternAmber
f 476 475 474 473 472 471 470 469 468 467 466 465
f 477 478 479 480 481 482 483 484 485 486 487 488
f 465 466 478 477
f 466 467 479 478
f 467 468 480 479
f 468 469 481 480
f 469 470 482 481
f 470 471 483 482
f 471 472 484 483
f 472 473 485 484
f 473 474 486 485
f 474 475 487 486
f 475 476 488 487
f 476 465 477 488
usemtl WoodDark
f 500 499 498 497 496 495 494 493 492 491 490 489
f 501 502 503 504 505 506 507 508 509 510 511 512
f 489 490 502 501
f 490 491 503 502
f 491 492 504 503
f 492 493 505 504
f 493 494 506 505
f 494 495 507 506
f 495 496 508 507
f 496 497 509 508
f 497 498 510 509
f 498 499 511 510
f 499 500 512 511
f 500 489 501 512
o Planter
v -8.250000 0.000000 8.300000
v -6.250000 0.000000 8.300000
v -6.250000 0.760000 8.300000
v -8.250000 0.760000 8.300000
v -8.250000 0.000000 9.200000
v -6.250000 0.000000 9.200000
v -6.250000 0.760000 9.200000
v -8.250000 0.760000 9.200000
v -8.250000 0.730000 8.300000
v -6.250000 0.730000 8.300000
v -6.250000 0.870000 8.300000
v -8.250000 0.870000 8.300000
v -8.250000 0.730000 9.200000
v -6.250000 0.730000 9.200000
v -6.250000 0.870000 9.200000
v -8.250000 0.870000 9.200000
v -6.870000 0.850000 8.750000
v -6.920910 0.850000 8.940000
v -7.060000 0.850000 9.079090
v -7.250000 0.850000 9.130000
v -7.440000 0.850000 9.079090
v -7.579090 0.850000 8.940000
v -7.630000 0.850000 8.750000
v -7.579090 0.850000 8.560000
v -7.440000 0.850000 8.420910
v -7.250000 0.850000 8.370000
v -7.060000 0.850000 8.420910
v -6.920910 0.850000 8.560000
v -6.870000 0.950000 8.750000
v -6.920910 0.950000 8.940000
v -7.060000 0.950000 9.079090
v -7.250000 0.950000 9.130000
v -7.440000 0.950000 9.079090
v -7.579090 0.950000 8.940000
v -7.630000 0.950000 8.750000
v -7.579090 0.950000 8.560000
v -7.440000 0.950000 8.420910
v -7.250000 0.950000 8.370000
v -7.060000 0.950000 8.420910
v -6.920910 0.950000 8.560000
usemtl StoneWarm
f 513 514 515 516
f 517 520 519 518
f 513 517 518 514
f 514 518 519 515
f 515 519 520 516
f 517 513 516 520
usemtl WoodDark
f 521 522 523 524
f 525 528 527 526
f 521 525 526 522
f 522 526 527 523
f 523 527 528 524
f 525 521 524 528
usemtl Leaf
f 540 539 538 537 536 535 534 533 532 531 530 529
f 541 542 543 544 545 546 547 548 549 550 551 552
f 529 530 542 541
f 530 531 543 542
f 531 532 544 543
f 532 533 545 544
f 533 534 546 545
f 534 535 547 546
f 535 536 548 547
f 536 537 549 548
f 537 538 550 549
f 538 539 551 550
f 539 540 552 551
f 540 529 541 552
o Drain
v -2.000000 0.000000 11.600000
v 2.000000 0.000000 11.600000
v 2.000000 0.160000 11.600000
v -2.000000 0.160000 11.600000
v -2.000000 0.000000 11.900000
v 2.000000 0.000000 11.900000
v 2.000000 0.160000 11.900000
v -2.000000 0.160000 11.900000
v -1.850000 0.130000 11.690000
v 1.850000 0.130000 11.690000
v 1.850000 0.160000 11.690000
v -1.850000 0.160000 11.690000
v -1.850000 0.130000 11.810000
v 1.850000 0.130000 11.810000
v 1.850000 0.160000 11.810000
v -1.850000 0.160000 11.810000
usemtl MetalDark
f 553 554 555 556
f 557 560 559 558
f 553 557 558 554
f 554 558 559 555
f 555 559 560 556
f 557 553 556 560
usemtl Ink
f 561 562 563 564
f 565 568 567 566
f 561 565 566 562
f 562 566 567 563
f 563 567 568 564
f 565 561 564 568
o Curb
v -2.000000 0.000000 12.175000
v 2.000000 0.000000 12.175000
v 2.000000 0.450000 12.175000
v -2.000000 0.450000 12.175000
v -2.000000 0.000000 12.825000
v 2.000000 0.000000 12.825000
v 2.000000 0.450000 12.825000
v -2.000000 0.450000 12.825000
v -1.920000 0.430000 12.220000
v 1.920000 0.430000 12.220000
v 1.920000 0.450000 12.220000
v -1.920000 0.450000 12.220000
v -1.920000 0.430000 12.780000
v 1.920000 0.430000 12.780000
v 1.920000 0.450000 12.780000
v -1.920000 0.450000 12.780000
usemtl StoneWarm
f 569 570 571 572
f 573 576 575 574
f 569 573 574 570
f 570 574 575 571
f 571 575 576 572
f 573 569 572 576
usemtl PlasterCream
f 577 578 579 580
f 581 584 583 582
f 577 581 582 578
f 578 582 583 579
f 579 583 584 580
f 581 577 580 584
o EdgeBollard
v 7.500000 0.000000 10.750000
v 7.466506 0.000000 10.875000
v 7.375000 0.000000 10.966506
v 7.250000 0.000000 11.000000
v 7.125000 0.000000 10.966506
v 7.033494 0.000000 10.875000
v 7.000000 0.000000 10.750000
v 7.033494 0.000000 10.625000
v 7.125000 0.000000 10.533494
v 7.250000 0.000000 10.500000
v 7.375000 0.000000 10.533494
v 7.466506 0.000000 10.625000
v 7.500000 1.100000 10.750000
v 7.466506 1.100000 10.875000
v 7.375000 1.100000 10.966506
v 7.250000 1.100000 11.000000
v 7.125000 1.100000 10.966506
v 7.033494 1.100000 10.875000
v 7.000000 1.100000 10.750000
v 7.033494 1.100000 10.625000
v 7.125000 1.100000 10.533494
v 7.250000 1.100000 10.500000
v 7.375000 1.100000 10.533494
v 7.466506 1.100000 10.625000
v 7.460000 1.040000 10.750000
v 7.431865 1.040000 10.855000
v 7.355000 1.040000 10.931865
v 7.250000 1.040000 10.960000
v 7.145000 1.040000 10.931865
v 7.068135 1.040000 10.855000
v 7.040000 1.040000 10.750000
v 7.068135 1.040000 10.645000
v 7.145000 1.040000 10.568135
v 7.250000 1.040000 10.540000
v 7.355000 1.040000 10.568135
v 7.431865 1.040000 10.645000
v 7.460000 1.100000 10.750000
v 7.431865 1.100000 10.855000
v 7.355000 1.100000 10.931865
v 7.250000 1.100000 10.960000
v 7.145000 1.100000 10.931865
v 7.068135 1.100000 10.855000
v 7.040000 1.100000 10.750000
v 7.068135 1.100000 10.645000
v 7.145000 1.100000 10.568135
v 7.250000 1.100000 10.540000
v 7.355000 1.100000 10.568135
v 7.431865 1.100000 10.645000
usemtl WoodDark
f 596 595 594 593 592 591 590 589 588 587 586 585
f 597 598 599 600 601 602 603 604 605 606 607 608
f 585 586 598 597
f 586 587 599 598
f 587 588 600 599
f 588 589 601 600
f 589 590 602 601
f 590 591 603 602
f 591 592 604 603
f 592 593 605 604
f 593 594 606 605
f 594 595 607 606
f 595 596 608 607
f 596 585 597 608
usemtl LanternAmber
f 620 619 618 617 616 615 614 613 612 611 610 609
f 621 622 623 624 625 626 627 628 629 630 631 632
f 609 610 622 621
f 610 611 623 622
f 611 612 624 623
f 612 613 625 624
f 613 614 626 625
f 614 615 627 626
f 615 616 628 627
f 616 617 629 628
f 617 618 630 629
f 618 619 631 630
f 619 620 632 631
f 620 609 621 632
